<svg width="22" height="19" viewBox="0 0 22 19" fill="none" xmlns="http://www.w3.org/2000/svg">
<path fill-rule="evenodd" clip-rule="evenodd" d="M11.2228 17.6297C7.9838 17.6297 5.2168 17.1394 5.2168 15.1762C5.2168 13.213 7.9658 11.5039 11.2228 11.5039C14.4618 11.5039 17.2288 13.1969 17.2288 15.1592C17.2288 17.1214 14.4798 17.6297 11.2228 17.6297Z" stroke="#353D46" stroke-linecap="round" stroke-linejoin="round"/>
<path fill-rule="evenodd" clip-rule="evenodd" d="M11.2226 8.70375C13.3486 8.70375 15.0726 6.97968 15.0726 4.85237C15.0726 2.72506 13.3486 1 11.2226 1C9.09657 1 7.37257 2.72506 7.37257 4.85237C7.36657 6.97168 9.07657 8.69674 11.1956 8.70375H11.2226Z" stroke="#353D46" stroke-linecap="round" stroke-linejoin="round"/>
<path d="M17.6123 7.64648C18.8493 7.31528 19.7613 6.18658 19.7613 4.84275C19.7613 3.44089 18.7683 2.27017 17.4463 2" stroke="#353D46" stroke-linecap="round" stroke-linejoin="round"/>
<path d="M18.1934 10.8008C19.9474 10.8008 21.4454 11.9905 21.4454 13.0532C21.4454 13.6786 20.9284 14.36 20.1444 14.5441" stroke="#353D46" stroke-linecap="round" stroke-linejoin="round"/>
<path d="M4.83408 7.64648C3.59608 7.31528 2.68408 6.18658 2.68408 4.84275C2.68408 3.44089 3.67808 2.27017 4.99908 2" stroke="#353D46" stroke-linecap="round" stroke-linejoin="round"/>
<path d="M4.252 10.8008C2.498 10.8008 1 11.9905 1 13.0532C1 13.6786 1.517 14.36 2.302 14.5441" stroke="#353D46" stroke-linecap="round" stroke-linejoin="round"/>
</svg>
