<svg width="22" height="17" viewBox="0 0 22 17" fill="none" xmlns="http://www.w3.org/2000/svg">
<path d="M16.9207 7.55769C18.2969 7.36433 19.3565 6.18441 19.3594 4.7549C19.3594 3.3461 18.3324 2.17802 16.9858 1.95703" stroke="#89163B" stroke-width="1.5" stroke-linecap="round" stroke-linejoin="round"/>
<path d="M18.7368 10.8672C20.0696 11.0665 21 11.5331 21 12.495C21 13.157 20.5619 13.5871 19.8536 13.8574" stroke="#89163B" stroke-width="1.5" stroke-linecap="round" stroke-linejoin="round"/>
<path fill-rule="evenodd" clip-rule="evenodd" d="M11.0005 11.2734C7.82967 11.2734 5.12158 11.7539 5.12158 13.6727C5.12158 15.5906 7.8129 16.0849 11.0005 16.0849C14.1712 16.0849 16.8783 15.6093 16.8783 13.6895C16.8783 11.7697 14.188 11.2734 11.0005 11.2734Z" stroke="#89163B" stroke-width="1.5" stroke-linecap="round" stroke-linejoin="round"/>
<path fill-rule="evenodd" clip-rule="evenodd" d="M11.0006 8.53529C13.0812 8.53529 14.7682 6.84927 14.7682 4.76765C14.7682 2.68701 13.0812 1 11.0006 1C8.91994 1 7.23294 2.68701 7.23294 4.76765C7.22505 6.84138 8.89923 8.52839 10.973 8.53529H11.0006Z" stroke="#89163B" stroke-width="1.5" stroke-linecap="round" stroke-linejoin="round"/>
<path d="M5.07914 7.55769C3.70191 7.36433 2.64334 6.18441 2.64038 4.7549C2.64038 3.3461 3.66738 2.17802 5.01403 1.95703" stroke="#89163B" stroke-width="1.5" stroke-linecap="round" stroke-linejoin="round"/>
<path d="M3.26315 10.8672C1.93032 11.0665 1 11.5331 1 12.495C1 13.157 1.43803 13.5871 2.14637 13.8574" stroke="#89163B" stroke-width="1.5" stroke-linecap="round" stroke-linejoin="round"/>
</svg>
