<svg width="134" height="134" viewBox="0 0 134 134" fill="none" xmlns="http://www.w3.org/2000/svg">
<path d="M67 134C104.003 134 134 104.003 134 67C134 29.9969 104.003 0 67 0C29.9969 0 0 29.9969 0 67C0 104.003 29.9969 134 67 134Z" fill="#89163B"/>
<path d="M81.1001 132.419C82.3841 132.17 83.6606 131.882 84.9278 131.558C87.0772 130.959 89.1954 130.253 91.2744 129.442C93.3578 128.636 95.3996 127.726 97.3921 126.716C99.384 125.701 101.324 124.588 103.204 123.379C105.082 122.173 106.898 120.873 108.646 119.486C110.398 118.095 112.08 116.618 113.684 115.059C115.284 113.503 116.805 111.869 118.242 110.162C119.683 108.454 121.037 106.674 122.299 104.83C123.56 102.988 124.728 101.085 125.799 99.1264C126.87 97.1661 127.842 95.1534 128.711 93.096C129.583 91.0383 130.35 88.9383 131.012 86.8038C131.578 84.9357 132.062 83.0437 132.462 81.1333L92.6594 41.3302C85.5614 34.2321 73.7815 41.3314 64.5 41.3314C55.218 41.3314 54.5981 40.9001 47.5 47.9988C43.5001 53.5 27.8038 77.3038 41.9999 91.5L81.1001 132.419Z" fill="#630F2A"/>
<path d="M81.8624 37C86.1089 37 90.1939 38.6783 93.1991 41.6898C96.2074 44.695 97.8889 48.7483 97.8889 52.9917V78.0083C97.8889 86.8433 90.7006 94 81.8624 94H50.5789C41.7408 94 34.5556 86.8433 34.5556 78.0083V52.9917C34.5556 44.1567 41.7091 37 50.5789 37H81.8624ZM85.4439 53.4667C84.7789 53.4318 84.1456 53.6567 83.6674 54.1L69.3889 65.5C67.5523 67.0232 64.9208 67.0232 63.0556 65.5L48.8056 54.1C47.8208 53.3717 46.4591 53.4667 45.6389 54.3217C44.7839 55.1767 44.6889 56.5383 45.4141 57.4883L45.8289 57.9L60.2373 69.1417C62.0106 70.535 64.1608 71.295 66.4123 71.295C68.6574 71.295 70.8456 70.535 72.6158 69.1417L86.9006 57.71L87.1539 57.4567C87.9108 56.5383 87.9108 55.2083 87.1191 54.29C86.6789 53.8182 86.0741 53.53 85.4439 53.4667Z" fill="white"/>
</svg>
