<svg width="134" height="134" viewBox="0 0 134 134" fill="none" xmlns="http://www.w3.org/2000/svg">
<path d="M67 134C104.003 134 134 104.003 134 67C134 29.9969 104.003 0 67 0C29.9969 0 0 29.9969 0 67C0 104.003 29.9969 134 67 134Z" fill="#89163B"/>
<path d="M81.1002 132.419C82.3842 132.169 83.6606 131.882 84.9278 131.557C87.0773 130.958 89.1955 130.252 91.2745 129.442C93.3579 128.636 95.3996 127.726 97.3921 126.715C99.384 125.701 101.324 124.587 103.204 123.379C105.082 122.172 106.898 120.873 108.646 119.485C110.398 118.095 112.08 116.617 113.684 115.058C115.284 113.503 116.805 111.869 118.242 110.162C119.683 108.453 121.037 106.673 122.299 104.829C123.56 102.988 124.728 101.084 125.8 99.1259C126.87 97.1656 127.842 95.1529 128.711 93.0955C129.583 91.0378 130.351 88.9378 131.012 86.8034C131.578 84.9352 132.062 83.0432 132.462 81.1328L84.9278 33.9988C77.8299 26.9007 73 26 64.5001 27.4981C53 31 49 41 50 51.5C46 57.0013 45 75 42 91.4995L81.1002 132.419Z" fill="#630F2A"/>
<path opacity="0.4" d="M56.3475 50.6833V45.906C56.3836 38.7967 62.353 32.9897 69.7332 32.9897C75.377 32.9897 80.4418 36.493 82.2869 41.7339C82.9019 43.3617 84.7108 44.2074 86.3388 43.6448C87.1347 43.3935 87.7859 42.8273 88.1477 42.0842C88.5095 41.3411 88.5818 40.4918 88.2924 39.7132C85.5429 32.0023 78.0903 26.7969 69.6609 26.7969C58.8799 26.7969 50.0887 35.3995 50.0164 45.9768V51.4017L56.3475 50.6833Z" fill="white"/>
<path d="M84.8017 50.6914C93.195 50.6914 100 57.3478 100 65.5576V83.138C100 91.3478 93.195 98.0042 84.8017 98.0042H54.6729C46.2796 98.0042 39.4746 91.3478 39.4746 83.138V65.5576C39.4746 57.3478 46.2796 50.6914 54.6729 50.6914H84.8017ZM69.7192 67.3234C67.9827 67.3234 66.5717 68.7035 66.5717 70.4021V78.2581C66.5717 79.9921 67.9827 81.3722 69.7192 81.3722C71.4919 81.3722 72.9029 79.9921 72.9029 78.2581V70.4021C72.9029 68.7035 71.4919 67.3234 69.7192 67.3234Z" fill="white"/>
</svg>
