<svg width="134" height="134" viewBox="0 0 134 134" fill="none" xmlns="http://www.w3.org/2000/svg">
<path d="M67 134C104.003 134 134 104.003 134 67C134 29.9969 104.003 0 67 0C29.9969 0 0 29.9969 0 67C0 104.003 29.9969 134 67 134Z" fill="#89163B"/>
<path d="M81.1001 132.417C82.3841 132.167 83.6606 131.88 84.9277 131.555C87.0772 130.956 89.1954 130.25 91.2744 129.44C93.3578 128.634 95.3996 127.724 97.3921 126.714C99.384 125.699 101.324 124.585 103.204 123.377C105.082 122.17 106.898 120.871 108.646 119.484C110.398 118.093 112.08 116.615 113.684 115.056C115.284 113.501 116.805 111.867 118.242 110.16C119.683 108.451 121.037 106.671 122.299 104.827C123.56 102.986 124.728 101.082 125.799 99.1241C126.87 97.1638 127.842 95.1511 128.711 93.0937C129.583 91.036 130.35 88.936 131.012 86.8015C131.578 84.9333 132.062 83.0413 132.462 81.1309L85 33.4973C81 27.9964 73 24 63.5 26.9996C52.5 30.9986 48.5 40.4986 50 50.9982C46 56.4994 44.9999 74.9982 41.9999 91.4977L81.1001 132.417Z" fill="#630F2A"/>
<path fill-rule="evenodd" clip-rule="evenodd" d="M54.3676 50.168H84.8322C93.3189 50.168 100.2 56.8971 100.2 65.1967V82.9693C100.2 91.2689 93.3189 97.998 84.8322 97.998H54.3676C45.8809 97.998 39 91.2689 39 82.9693V65.1967C39 56.8971 45.8809 50.168 54.3676 50.168ZM69.5816 81.1834C71.3741 81.1834 72.8008 79.7882 72.8008 78.0352V70.0934C72.8008 68.3762 71.3741 66.981 69.5816 66.981C67.8258 66.981 66.3991 68.3762 66.3991 70.0934V78.0352C66.3991 79.7882 67.8258 81.1834 69.5816 81.1834Z" fill="white"/>
<path opacity="0.4" d="M89.482 45.4254V50.7199C88.2016 50.3622 86.8481 50.1833 85.4581 50.1833H83.0803V45.4254C83.0803 38.1632 77.0445 32.2605 69.6186 32.2605C62.1926 32.2605 56.1568 38.1274 56.1202 45.3538V50.1833H53.779C52.3524 50.1833 50.9989 50.3622 49.7186 50.7557V45.4254C49.7551 34.6931 58.6443 26 69.5454 26C80.5928 26 89.482 34.6931 89.482 45.4254Z" fill="white"/>
</svg>
