<svg width="164" height="54" viewBox="0 0 164 54" fill="none" xmlns="http://www.w3.org/2000/svg">
<path fill-rule="evenodd" clip-rule="evenodd" d="M56.3908 11.4258H64.2625C68.9469 11.6046 72.6521 15.454 72.6521 20.1418C72.6521 24.8296 68.9469 28.679 64.2625 28.8578L58.1936 28.934V39.0911C58.1936 40.0728 57.3978 40.8686 56.4162 40.8686C55.4345 40.8686 54.6387 40.0728 54.6387 39.0911V13.1779C54.6523 12.2159 55.4288 11.4394 56.3908 11.4258ZM64.2498 25.3917C67.1006 25.3508 69.4017 23.0497 69.4426 20.1989C69.4426 17.336 67.1254 15.0131 64.2625 15.0061H58.1936V25.3917H64.2498Z" fill="#89163B"/>
<path fill-rule="evenodd" clip-rule="evenodd" d="M89.3426 20.3112C89.6759 19.9732 90.1328 19.786 90.6075 19.7932V19.8313C91.0732 19.8278 91.5208 20.0113 91.8501 20.3407C92.1795 20.67 92.363 21.1176 92.3596 21.5833V39.117C92.416 39.7809 92.0938 40.42 91.5264 40.7693C90.959 41.1187 90.2432 41.1187 89.6759 40.7693C89.1085 40.42 88.7862 39.7809 88.8427 39.117V38.3171C87.064 39.9376 84.7483 40.8421 82.3422 40.8564C76.6748 40.6972 72.2024 35.9864 72.3375 30.3184C72.2167 24.6624 76.6869 19.9709 82.3422 19.8186C84.7476 19.8364 87.062 20.7405 88.8427 22.3578V21.5833C88.8288 21.1089 89.0094 20.6493 89.3426 20.3112ZM85.7699 36.4467C87.8711 35.1498 89.0603 32.778 88.8427 30.3184C89.0603 27.8588 87.8711 25.4871 85.7699 24.1901C83.6688 22.8931 81.0155 22.8931 78.9144 24.1901C76.8132 25.4871 75.624 27.8588 75.8416 30.3184C75.624 32.778 76.8132 35.1498 78.9144 36.4467C81.0155 37.7437 83.6688 37.7437 85.7699 36.4467Z" fill="#89163B"/>
<path d="M112.381 20.2238L112.178 20.0714C111.973 19.963 111.755 19.8779 111.531 19.8175H111.099C111.003 19.8004 110.904 19.8004 110.807 19.8175H110.655C109.952 20.0579 109.475 20.7126 109.461 21.4553V32.006C109.556 33.9201 108.589 35.7309 106.945 36.7164C105.301 37.7018 103.248 37.7018 101.605 36.7164C99.961 35.7309 98.9937 33.9201 99.0884 32.006V21.5061C99.0107 20.5927 98.2467 19.8909 97.33 19.8909C96.4133 19.8909 95.6492 20.5927 95.5715 21.5061V32.0695C95.5473 35.3632 97.3913 38.3862 100.331 39.8722C103.27 41.3581 106.798 41.0503 109.436 39.0778C109.219 41.2014 107.973 43.0829 106.102 44.1118C104.232 45.1407 101.976 45.1859 100.066 44.2325H99.9391C99.0768 43.9474 98.1389 44.3633 97.7713 45.1937C97.4036 46.0242 97.7263 46.9981 98.5171 47.4447C99.8762 48.0838 101.357 48.4216 102.859 48.435C105.519 48.4621 108.08 47.4287 109.977 45.5632C111.873 43.6978 112.949 41.1539 112.965 38.4938V21.5061C112.961 21.2394 112.892 20.9777 112.762 20.7443C112.671 20.544 112.537 20.3663 112.369 20.2238" fill="#89163B"/>
<path d="M130.093 21.5843C130.096 21.1164 129.911 20.6668 129.579 20.3371C129.247 20.0074 128.796 19.8254 128.328 19.8322C125.51 19.884 122.857 21.1753 121.078 23.3618V21.5843C121.001 20.6709 120.237 19.9691 119.32 19.9691C118.403 19.9691 117.639 20.6709 117.562 21.5843V39.0925C117.505 39.7564 117.827 40.3956 118.395 40.7449C118.962 41.0942 119.678 41.0942 120.245 40.7449C120.813 40.3956 121.135 39.7564 121.078 39.0925V30.586V30.5098C121.607 28.9751 122.355 27.5253 123.3 26.2058C124.388 24.4862 126.256 23.4165 128.29 23.3491C129.274 23.3562 130.079 22.568 130.093 21.5843Z" fill="#89163B"/>
<path fill-rule="evenodd" clip-rule="evenodd" d="M145.952 20.2944C146.294 19.9543 146.763 19.7731 147.246 19.7947C147.709 19.8047 148.15 19.9993 148.469 20.3355C148.789 20.6716 148.961 21.1214 148.947 21.5849V39.1439C148.947 40.1116 148.163 40.896 147.195 40.896C146.227 40.896 145.443 40.1116 145.443 39.1439V38.344C143.659 39.9643 141.339 40.8686 138.93 40.8833C133.262 40.7241 128.79 36.0134 128.925 30.3454C128.797 24.6822 133.267 19.9793 138.93 19.8201C141.338 19.8408 143.656 20.7442 145.443 22.3594V21.5849C145.425 21.1025 145.609 20.6345 145.952 20.2944ZM142.342 36.3848C144.432 35.1058 145.63 32.7635 145.443 30.32C145.63 27.8764 144.432 25.5341 142.342 24.2551C140.251 22.9761 137.621 22.9761 135.53 24.2551C133.44 25.5341 132.242 27.8764 132.429 30.32C132.242 32.7635 133.44 35.1058 135.53 36.3848C137.621 37.6638 140.251 37.6638 142.342 36.3848Z" fill="#89163B"/>
<path d="M154.419 13.4453C153.442 13.4592 152.66 14.2587 152.667 15.2355V16.1496C152.61 16.8182 152.935 17.4617 153.506 17.8134C154.078 18.1651 154.799 18.1651 155.37 17.8134C155.941 17.4617 156.266 16.8182 156.209 16.1496V15.2355C156.195 14.2588 155.396 13.4763 154.419 13.4834" fill="#89163B"/>
<path d="M154.419 19.7932C153.946 19.7859 153.49 19.9734 153.159 20.3119C152.827 20.6504 152.65 21.1101 152.667 21.5834V39.0916C152.745 40.0118 153.515 40.719 154.438 40.719C155.362 40.719 156.131 40.0118 156.209 39.0916V21.5834C156.217 21.1098 156.029 20.654 155.691 20.3228C155.352 19.9915 154.893 19.8138 154.419 19.8313" fill="#89163B"/>
<path d="M161.999 11.426C161.037 11.4396 160.26 12.2161 160.247 13.1781V39.0913C160.247 40.0729 161.042 40.8687 162.024 40.8687C163.006 40.8687 163.802 40.0729 163.802 39.0913V13.2034C163.802 12.7276 163.611 12.2716 163.272 11.9375C162.933 11.6034 162.474 11.4192 161.999 11.426Z" fill="#89163B"/>
<path d="M26.9987 14.9046C27.1132 15.7896 27.1132 16.6857 26.9987 17.5708C26.2899 23.5003 20.9201 27.7405 14.9879 27.0549C13.4839 26.8761 12.1196 27.9505 11.9408 29.4546C11.762 30.9586 12.8364 32.3229 14.3404 32.5017C18.6423 33.0202 22.9734 31.8035 26.3759 29.1206C29.7784 26.4377 31.9717 22.5097 32.4708 18.2056C32.5489 17.5229 32.5829 16.8359 32.5724 16.1488C31.179 15.3061 29.5792 14.8666 27.9509 14.8792C27.6325 14.8814 27.3145 14.9026 26.9987 14.9427" fill="#89163B"/>
<path d="M40.0125 12.7725C39.8922 12.5764 39.7518 12.3934 39.5935 12.2266C36.5436 9.15646 32.3928 7.43308 28.0653 7.44005H27.9002C18.9175 7.48196 11.6558 14.772 11.6489 23.7548C11.6434 23.8267 11.6434 23.8988 11.6489 23.9707V44.1832C11.6489 45.9012 10.2562 47.2938 8.53831 47.2938C6.82037 47.2938 5.42771 45.9012 5.42771 44.1832V33.7849C5.42771 33.7214 5.42771 33.6453 5.42771 33.5818V16.5687C5.3916 10.5506 10.1901 5.61644 16.2069 5.48481H16.5116C16.8417 5.48481 17.1718 5.48481 17.5019 5.48481C18.8399 5.66575 20.1319 6.09643 21.3108 6.75445C23.4052 5.92644 25.6354 5.49588 27.8875 5.48481H28.4461L28.2684 5.29437C25.6339 2.37046 22.0216 0.510147 18.1113 0.0634816C17.6416 0 17.0956 0 16.5624 0H16.118C7.91707 0.0948463 1.05701 6.25423 0.0825516 14.3976C0.0636838 14.5664 0.0636838 14.7367 0.0825516 14.9055C0.0825516 15.4514 0.00637359 16.0101 0.00637359 16.5687V30.8648C-0.000589771 30.9323 -0.000589771 31.0004 0.00637359 31.0679V44.1832C-0.114656 47.3306 1.49543 50.292 4.20272 51.9017C6.91001 53.5113 10.2809 53.5113 12.9882 51.9017C15.6955 50.292 17.3055 47.3306 17.1845 44.1832V24.0088C17.1491 17.9566 22.0009 13.0084 28.0526 12.9249C32.2808 12.935 36.1165 15.405 37.8753 19.2501C39.634 23.0953 38.9941 27.6123 36.2366 30.8177C33.4791 34.0231 29.1082 35.3305 25.0435 34.1658C23.585 33.7556 22.0702 34.6054 21.66 36.0639C21.2498 37.5224 22.0996 39.0373 23.5581 39.4475C30.5645 41.4387 38.0417 38.5403 41.8756 32.347C45.7096 26.1538 44.9698 18.1687 40.0633 12.7852" fill="#89163B"/>
</svg>
