<svg width="82" height="82" viewBox="0 0 82 82" fill="none" xmlns="http://www.w3.org/2000/svg">
<circle cx="41" cy="41" r="40" fill="#FCF9FA" stroke="#89163B" stroke-opacity="0.1"/>
<path fill-rule="evenodd" clip-rule="evenodd" d="M56.2144 43.2342C51.7327 43.2342 51.7327 36.3047 56.2144 36.3047C56.2144 28.2758 56.2144 25.4102 40.3913 25.4102C24.5681 25.4102 24.5681 28.2758 24.5681 36.3047C29.0498 36.3047 29.0498 43.2342 24.5681 43.2342C24.5681 51.2647 24.5681 54.1304 40.3913 54.1304C56.2144 54.1304 56.2144 51.2647 56.2144 43.2342Z" stroke="#89163B" stroke-width="1.5" stroke-linecap="round" stroke-linejoin="round"/>
<path fill-rule="evenodd" clip-rule="evenodd" d="M40.3912 35.1133C39.2409 35.1133 39.1315 36.9482 38.4477 37.5976C37.7622 38.2454 35.635 37.505 35.3386 38.6554C35.0439 39.8074 36.9588 40.1984 37.1963 41.186C37.4321 42.1737 36.2632 43.5618 37.262 44.2543C38.2624 44.9436 39.3386 43.3815 40.3912 43.3815C41.4439 43.3815 42.5201 44.9436 43.5205 44.2543C44.5209 43.5618 43.3504 42.1737 43.5862 41.186C43.8237 40.1984 45.7386 39.8074 45.4439 38.6554C45.1475 37.505 43.0203 38.2454 42.3348 37.5976C41.651 36.9482 41.5416 35.1133 40.3912 35.1133Z" stroke="#89163B" stroke-width="1.5" stroke-linecap="round" stroke-linejoin="round"/>
</svg>
