<svg width="134" height="134" viewBox="0 0 134 134" fill="none" xmlns="http://www.w3.org/2000/svg">
<path d="M67 134C104.003 134 134 104.003 134 67C134 29.9969 104.003 0 67 0C29.9969 0 0 29.9969 0 67C0 104.003 29.9969 134 67 134Z" fill="#89163B"/>
<path d="M81.1 132.42C82.3841 132.17 83.6605 131.883 84.9277 131.559C87.0772 130.96 89.1954 130.254 91.2744 129.443C93.3578 128.637 95.3995 127.727 97.392 126.717C99.3839 125.702 101.324 124.589 103.204 123.38C105.082 122.174 106.898 120.874 108.646 119.487C110.398 118.096 112.08 116.618 113.684 115.059C115.284 113.504 116.805 111.87 118.242 110.163C119.683 108.454 121.036 106.675 122.299 104.831C123.56 102.989 124.728 101.086 125.799 99.1273C126.87 97.167 127.842 95.1543 128.711 93.0969C129.582 91.0392 130.35 88.9392 131.012 86.8047C131.578 84.9365 132.062 83.0445 132.462 81.1341L92.6593 41.3311C86.4999 36.0004 81.8218 35.6887 77.9999 36.0026C45.9496 38.6349 50.6914 41.3311 50 99.8732L81.1 132.42Z" fill="#630F2A"/>
<path d="M78.6923 36H55.3077C51.2738 36 48 39.36 48 43.5V94.5C48 98.64 51.2738 102 55.3077 102H78.6923C82.7262 102 86 98.64 86 94.5V43.5C86 39.36 82.7262 36 78.6923 36ZM67 99C64.5738 99 62.6154 96.99 62.6154 94.5C62.6154 92.01 64.5738 90 67 90C69.4262 90 71.3846 92.01 71.3846 94.5C71.3846 96.99 69.4262 99 67 99ZM80.1538 87H53.8462V45H80.1538V87Z" fill="white"/>
</svg>
