<svg width="22" height="22" viewBox="0 0 22 22" fill="none" xmlns="http://www.w3.org/2000/svg">
<path fill-rule="evenodd" clip-rule="evenodd" d="M6.93162 19.128C6.35262 18.895 5.80562 18.675 5.22562 18.675C4.65366 18.679 4.07682 18.8761 3.56643 19.0506L3.54762 19.057L3.52013 19.0664C3.09137 19.2134 2.46569 19.428 2.32962 19.287C2.18809 19.1455 2.40717 18.5033 2.55318 18.0752L2.55462 18.071L2.55599 18.067C2.73266 17.548 2.93262 16.9605 2.93262 16.377C2.93262 15.791 2.70662 15.227 2.47262 14.648C0.847625 11.135 1.59162 6.94 4.32562 4.208C6.07062 2.462 8.39362 1.5 10.8666 1.5C13.3386 1.5 15.6606 2.461 17.4066 4.207C21.0126 7.813 21.0126 13.682 17.4066 17.29C14.6736 20.022 10.4786 20.768 6.93162 19.128ZM6.33662 20.505C7.77562 21.171 9.31362 21.494 10.8416 21.494C13.6446 21.494 16.4116 20.406 18.4666 18.35C22.6586 14.158 22.6586 7.338 18.4666 3.146C16.4386 1.117 13.7386 0 10.8656 0C7.99262 0 5.29362 1.118 3.26562 3.147C0.0886247 6.322 -0.777375 11.197 1.09562 15.242C1.29962 15.749 1.43262 16.101 1.43262 16.377C1.43262 16.713 1.28162 17.157 1.13462 17.587C0.836625 18.46 0.466625 19.545 1.26862 20.348C2.07322 21.1496 3.16052 20.7764 4.0343 20.4765L4.03562 20.476C4.46162 20.329 4.90262 20.177 5.23062 20.175C5.5136 20.175 5.90698 20.3327 6.32757 20.5014L6.33662 20.505ZM13.8095 11.1627C13.8095 11.7157 14.2615 12.1627 14.8135 12.1627C15.3655 12.1627 15.8135 11.7157 15.8135 11.1627C15.8135 10.6097 15.3655 10.1627 14.8135 10.1627H14.8045C14.2525 10.1627 13.8095 10.6097 13.8095 11.1627ZM10.8047 12.1627C10.2527 12.1627 9.80072 11.7157 9.80072 11.1627C9.80072 10.6097 10.2427 10.1627 10.7957 10.1627H10.8047C11.3567 10.1627 11.8047 10.6097 11.8047 11.1627C11.8047 11.7157 11.3567 12.1627 10.8047 12.1627ZM5.79152 11.1627C5.79152 11.7157 6.24352 12.1627 6.79552 12.1627C7.34752 12.1627 7.79552 11.7157 7.79552 11.1627C7.79552 10.6097 7.34752 10.1627 6.79552 10.1627H6.78652C6.23452 10.1627 5.79152 10.6097 5.79152 11.1627Z" fill="#6E7883"/>
</svg>
