<svg width="22" height="20" viewBox="0 0 22 20" fill="none" xmlns="http://www.w3.org/2000/svg">
<path fill-rule="evenodd" clip-rule="evenodd" d="M6.99654 1.5C4.51654 1.5 2.49854 3.518 2.49854 5.998V13.175C2.49854 15.655 4.51654 17.673 6.99654 17.673H15.6405C18.1205 17.673 20.1375 15.655 20.1375 13.175V12.8956H16.8396C14.9426 12.8956 13.3986 11.3526 13.3976 9.4566C13.3976 7.5586 14.9416 6.0146 16.8396 6.0136H20.1375V5.998C20.1375 3.518 18.1205 1.5 15.6405 1.5H6.99654ZM21.6376 12.1456L21.6375 12.1579V13.175C21.6375 16.482 18.9475 19.173 15.6405 19.173H6.99654C3.68954 19.173 0.998535 16.482 0.998535 13.175V5.998C0.998535 2.69 3.68954 0 6.99654 0H15.6405C18.9475 0 21.6375 2.69 21.6375 5.998V6.75129L21.6376 6.7636L21.6375 6.77591V12.1333L21.6376 12.1456ZM20.1375 11.3956V7.5136H16.8396C15.7686 7.5146 14.8976 8.3856 14.8976 9.4556C14.8976 10.5246 15.7696 11.3956 16.8396 11.3956H20.1375ZM16.9852 10.1436H17.2972C17.7112 10.1436 18.0472 9.8076 18.0472 9.3936C18.0472 8.9796 17.7112 8.6436 17.2972 8.6436H16.9852C16.5712 8.6436 16.2352 8.9796 16.2352 9.3936C16.2352 9.8076 16.5712 10.1436 16.9852 10.1436ZM6.28453 6.0381H11.6835C12.0975 6.0381 12.4335 5.7021 12.4335 5.2881C12.4335 4.8741 12.0975 4.5381 11.6835 4.5381H6.28453C5.87053 4.5381 5.53453 4.8741 5.53453 5.2881C5.53453 5.7021 5.87053 6.0381 6.28453 6.0381Z" fill="#777777"/>
</svg>
