<svg width="51" height="21" viewBox="0 0 51 21" fill="none" xmlns="http://www.w3.org/2000/svg">
<path d="M16.248 16V4.64H19.88C20.5947 4.64 21.2133 4.75733 21.736 4.992C22.2587 5.22667 22.6587 5.56267 22.936 6C23.224 6.43733 23.368 6.94933 23.368 7.536C23.368 8.09067 23.2347 8.576 22.968 8.992C22.7013 9.408 22.3227 9.73333 21.832 9.968C22.472 10.1813 22.968 10.5387 23.32 11.04C23.672 11.5413 23.848 12.1333 23.848 12.816C23.848 13.4667 23.688 14.032 23.368 14.512C23.048 14.9813 22.5947 15.3493 22.008 15.616C21.432 15.872 20.7493 16 19.96 16H16.248ZM17.592 5.84V9.472H19.816C20.52 9.472 21.0587 9.31733 21.432 9.008C21.8053 8.69867 21.992 8.25067 21.992 7.664C21.992 7.07733 21.8 6.62933 21.416 6.32C21.032 6 20.4987 5.84 19.816 5.84H17.592ZM17.592 14.8H19.928C20.728 14.8 21.352 14.6187 21.8 14.256C22.248 13.8933 22.472 13.3867 22.472 12.736C22.472 12.0747 22.248 11.5627 21.8 11.2C21.3627 10.8267 20.7387 10.64 19.928 10.64H17.592V14.8ZM28.2113 16.24C27.6353 16.24 27.1233 16.1333 26.6753 15.92C26.2273 15.696 25.8753 15.392 25.6193 15.008C25.3739 14.624 25.2513 14.1813 25.2513 13.68C25.2513 13.136 25.3899 12.6667 25.6673 12.272C25.9553 11.8773 26.3553 11.5733 26.8673 11.36C27.3793 11.136 27.9766 11.024 28.6593 11.024C29.0433 11.024 29.4326 11.0667 29.8273 11.152C30.2219 11.2373 30.5739 11.3493 30.8833 11.488V10.88C30.8833 10.432 30.7926 10.0427 30.6113 9.712C30.4406 9.37067 30.2006 9.10933 29.8913 8.928C29.5819 8.736 29.2193 8.64 28.8033 8.64C28.3019 8.64 27.8646 8.75733 27.4913 8.992C27.1286 9.22667 26.8566 9.55733 26.6753 9.984L25.5553 9.6C25.7046 9.17333 25.9339 8.80533 26.2433 8.496C26.5633 8.18667 26.9419 7.94667 27.3793 7.776C27.8273 7.60533 28.3073 7.52 28.8193 7.52C29.4806 7.52 30.0566 7.664 30.5473 7.952C31.0486 8.22933 31.4326 8.624 31.6993 9.136C31.9766 9.63733 32.1153 10.2293 32.1153 10.912V16H30.9953L30.9153 14.72C30.6806 15.1787 30.3233 15.5467 29.8433 15.824C29.3739 16.1013 28.8299 16.24 28.2113 16.24ZM26.5473 13.632C26.5473 13.9413 26.6273 14.2133 26.7873 14.448C26.9473 14.672 27.1713 14.848 27.4593 14.976C27.7473 15.104 28.0779 15.168 28.4513 15.168C28.9099 15.168 29.3206 15.0667 29.6833 14.864C30.0566 14.6507 30.3499 14.368 30.5633 14.016C30.7766 13.6533 30.8833 13.2427 30.8833 12.784V12.48C30.5313 12.3413 30.1739 12.2347 29.8113 12.16C29.4593 12.0747 29.1233 12.032 28.8033 12.032C28.0993 12.032 27.5446 12.176 27.1393 12.464C26.7446 12.752 26.5473 13.1413 26.5473 13.632ZM37.8439 16.24C37.2785 16.24 36.7559 16.1333 36.2759 15.92C35.7959 15.7067 35.3745 15.408 35.0119 15.024C34.6492 14.6293 34.3665 14.1707 34.1639 13.648C33.9719 13.1253 33.8759 12.5547 33.8759 11.936C33.8759 11.3173 33.9772 10.7413 34.1799 10.208C34.3825 9.664 34.6652 9.18933 35.0279 8.784C35.3905 8.37867 35.8172 8.064 36.3079 7.84C36.7985 7.616 37.3319 7.504 37.9079 7.504C38.4412 7.504 38.9212 7.6 39.3479 7.792C39.7852 7.984 40.1585 8.24533 40.4679 8.576C40.7879 8.90667 41.0332 9.28533 41.2039 9.712L40.0359 10.112C39.8012 9.664 39.4972 9.312 39.1239 9.056C38.7505 8.8 38.3292 8.672 37.8599 8.672C37.4759 8.672 37.1239 8.75733 36.8039 8.928C36.4839 9.088 36.2012 9.312 35.9559 9.6C35.7105 9.888 35.5185 10.2347 35.3799 10.64C35.2519 11.0347 35.1879 11.4613 35.1879 11.92C35.1879 12.3787 35.2519 12.8 35.3799 13.184C35.5185 13.568 35.7052 13.904 35.9399 14.192C36.1745 14.4693 36.4519 14.688 36.7719 14.848C37.1025 14.9973 37.4599 15.072 37.8439 15.072C38.3345 15.072 38.7825 14.9493 39.1879 14.704C39.6039 14.448 39.9185 14.096 40.1319 13.648L41.2999 14.048C41.1292 14.496 40.8679 14.8853 40.5159 15.216C40.1745 15.536 39.7692 15.7867 39.2999 15.968C38.8412 16.1493 38.3559 16.24 37.8439 16.24ZM43.0263 16V4.128H44.3063V11.2L48.2103 7.744H49.8583L45.6343 11.44L50.2423 16H48.4823L44.3063 11.776V16H43.0263Z" fill="#6E7883"/>
<path d="M5.08455 16C5.46223 16 5.75536 15.7069 5.75536 15.3348C5.75536 15.1488 5.68207 14.9797 5.55242 14.8501L1.60654 10.9944L5.55242 7.14994C5.68207 7.02029 5.75536 6.84555 5.75536 6.66516C5.75536 6.29312 5.46223 6 5.08455 6C4.90417 6 4.74634 6.06764 4.62232 6.19166L0.236753 10.4758C0.0789177 10.6223 0 10.8027 0 11C0 11.1973 0.0789177 11.3664 0.231116 11.5186L4.61669 15.8083C4.74634 15.9324 4.90417 16 5.08455 16Z" fill="#6E7883"/>
</svg>
