<svg width="134" height="134" viewBox="0 0 134 134" fill="none" xmlns="http://www.w3.org/2000/svg">
<path d="M67 134C104.003 134 134 104.003 134 67C134 29.9969 104.003 0 67 0C29.9969 0 0 29.9969 0 67C0 104.003 29.9969 134 67 134Z" fill="#89163B"/>
<path d="M81.1003 132.42C82.3843 132.17 83.6607 131.883 84.9279 131.558C87.0774 130.959 89.1956 130.253 91.2746 129.443C93.358 128.637 95.3998 127.727 97.3923 126.716C99.3842 125.702 101.324 124.588 103.205 123.38C105.082 122.173 106.898 120.874 108.646 119.487C110.398 118.096 112.08 116.618 113.684 115.059C115.284 113.504 116.806 111.87 118.243 110.163C119.683 108.454 121.037 106.674 122.299 104.83C123.56 102.989 124.729 101.085 125.8 99.127C126.87 97.1666 127.842 95.154 128.711 93.0965C129.583 91.0388 130.351 88.9388 131.012 86.8044C131.578 84.9362 132.062 83.0442 132.463 81.1338L92.6595 41.3307C85.5616 34.2326 76.7815 31.5 67.5 31.5C58.218 31.5 59.0981 32.9013 52 40C49.9997 44.5 49.6865 48.5044 48.5 54C45.8485 66.2812 43.8688 80.4596 41.3408 92.6603L81.1003 132.42Z" fill="#630F2A"/>
<path d="M81.4255 53.4922H53.0767C45.1794 53.4922 38.7764 59.754 38.7764 67.4772V84.0155C38.7764 91.7387 45.1794 98.0005 53.0767 98.0005H81.4255C89.3229 98.0005 95.7259 91.7387 95.7259 84.0155V67.4772C95.7259 59.754 89.3229 53.4922 81.4255 53.4922Z" fill="white"/>
<path fill-rule="evenodd" clip-rule="evenodd" d="M58.4144 69.6638C56.9156 71.639 56.0264 74.1012 56.0264 76.7725V83.1534H55.0264V76.7725C55.0264 73.8754 55.9916 71.2023 57.6178 69.0593L58.4144 69.6638ZM67.7974 65C65.4704 65 63.3024 65.6747 61.4768 66.8391L60.9391 65.996C62.9206 64.7322 65.2742 64 67.7974 64C74.8506 64 80.5684 69.7178 80.5684 76.771V83.1519H79.5684V76.771C79.5684 70.27 74.2983 65 67.7974 65Z" fill="#89163B"/>
<path d="M58.4144 69.6638L58.8127 69.9661L59.115 69.5678L58.7167 69.2655L58.4144 69.6638ZM56.0264 83.1534V83.6534H56.5264V83.1534H56.0264ZM55.0264 83.1534H54.5264V83.6534H55.0264V83.1534ZM57.6178 69.0593L57.9201 68.661L57.5218 68.3588L57.2195 68.7571L57.6178 69.0593ZM61.4768 66.8391L61.0553 67.1079L61.3241 67.5295L61.7457 67.2606L61.4768 66.8391ZM60.9391 65.996L60.6703 65.5744L60.2487 65.8433L60.5176 66.2648L60.9391 65.996ZM80.5684 83.1519V83.6519H81.0684V83.1519H80.5684ZM79.5684 83.1519H79.0684V83.6519H79.5684V83.1519ZM56.5264 76.7725C56.5264 74.214 57.3776 71.8573 58.8127 69.9661L58.0161 69.3616C56.4536 71.4207 55.5264 73.9883 55.5264 76.7725H56.5264ZM56.5264 83.1534V76.7725H55.5264V83.1534H56.5264ZM55.0264 83.6534H56.0264V82.6534H55.0264V83.6534ZM54.5264 76.7725V83.1534H55.5264V76.7725H54.5264ZM57.2195 68.7571C55.5296 70.984 54.5264 73.7625 54.5264 76.7725H55.5264C55.5264 73.9883 56.4536 71.4207 58.0161 69.3616L57.2195 68.7571ZM58.7167 69.2655L57.9201 68.661L57.3156 69.4576L58.1122 70.0621L58.7167 69.2655ZM61.7457 67.2606C63.4934 66.146 65.5684 65.5 67.7974 65.5V64.5C65.3723 64.5 63.1115 65.2035 61.208 66.4175L61.7457 67.2606ZM60.5176 66.2648L61.0553 67.1079L61.8984 66.5702L61.3607 65.7271L60.5176 66.2648ZM67.7974 63.5C65.1762 63.5 62.7296 64.261 60.6703 65.5744L61.208 66.4175C63.1115 65.2035 65.3723 64.5 67.7974 64.5V63.5ZM81.0684 76.771C81.0684 69.4416 75.1267 63.5 67.7974 63.5V64.5C74.5745 64.5 80.0684 69.9939 80.0684 76.771H81.0684ZM81.0684 83.1519V76.771H80.0684V83.1519H81.0684ZM79.5684 83.6519H80.5684V82.6519H79.5684V83.6519ZM79.0684 76.771V83.1519H80.0684V76.771H79.0684ZM67.7974 65.5C74.0222 65.5 79.0684 70.5462 79.0684 76.771H80.0684C80.0684 69.9939 74.5745 64.5 67.7974 64.5V65.5Z" fill="#89163B"/>
<path fill-rule="evenodd" clip-rule="evenodd" d="M67.7971 70.8906C64.0071 70.8906 60.9346 73.9631 60.9346 77.7532V89.0425H59.9346V77.7532C59.9346 73.4108 63.4548 69.8906 67.7971 69.8906C69.288 69.8906 70.6833 70.306 71.872 71.0277L71.3531 71.8825C70.3164 71.2531 69.0999 70.8906 67.7971 70.8906ZM74.6601 77.7526C74.6601 76.8584 74.4893 76.0053 74.179 75.2232L75.1086 74.8545C75.4646 75.7519 75.6601 76.73 75.6601 77.7526V89.0419H74.6601V77.7526Z" fill="#89163B"/>
<path d="M60.9346 89.0425V89.5425H61.4346V89.0425H60.9346ZM59.9346 89.0425H59.4346V89.5425H59.9346V89.0425ZM71.872 71.0277L72.2994 71.2872L72.5589 70.8598L72.1315 70.6003L71.872 71.0277ZM71.3531 71.8825L71.0936 72.3099L71.521 72.5694L71.7805 72.142L71.3531 71.8825ZM74.179 75.2232L73.9947 74.7584L73.5299 74.9428L73.7143 75.4076L74.179 75.2232ZM75.1086 74.8545L75.5733 74.6701L75.389 74.2053L74.9242 74.3897L75.1086 74.8545ZM75.6601 89.0419V89.5419H76.1601V89.0419H75.6601ZM74.6601 89.0419H74.1601V89.5419H74.6601V89.0419ZM61.4346 77.7532C61.4346 74.2392 64.2832 71.3906 67.7971 71.3906V70.3906C63.7309 70.3906 60.4346 73.687 60.4346 77.7532H61.4346ZM61.4346 89.0425V77.7532H60.4346V89.0425H61.4346ZM59.9346 89.5425H60.9346V88.5425H59.9346V89.5425ZM59.4346 77.7532V89.0425H60.4346V77.7532H59.4346ZM67.7971 69.3906C63.1786 69.3906 59.4346 73.1347 59.4346 77.7532H60.4346C60.4346 73.687 63.7309 70.3906 67.7971 70.3906V69.3906ZM72.1315 70.6003C70.8668 69.8325 69.3821 69.3906 67.7971 69.3906V70.3906C69.1939 70.3906 70.4999 70.7796 71.6126 71.4551L72.1315 70.6003ZM71.7805 72.142L72.2994 71.2872L71.4446 70.7682L70.9257 71.623L71.7805 72.142ZM67.7971 71.3906C69.0058 71.3906 70.1329 71.7267 71.0936 72.3099L71.6126 71.4551C70.4999 70.7796 69.1939 70.3906 67.7971 70.3906V71.3906ZM73.7143 75.4076C74.0016 76.1319 74.1601 76.9225 74.1601 77.7526H75.1601C75.1601 76.7942 74.9769 75.8786 74.6438 75.0388L73.7143 75.4076ZM74.9242 74.3897L73.9947 74.7584L74.3634 75.688L75.2929 75.3192L74.9242 74.3897ZM76.1601 77.7526C76.1601 76.6659 75.9523 75.6253 75.5733 74.6701L74.6438 75.0388C74.9769 75.8786 75.1601 76.7942 75.1601 77.7526H76.1601ZM76.1601 89.0419V77.7526H75.1601V89.0419H76.1601ZM74.6601 89.5419H75.6601V88.5419H74.6601V89.5419ZM74.1601 77.7526V89.0419H75.1601V77.7526H74.1601Z" fill="#89163B"/>
<path fill-rule="evenodd" clip-rule="evenodd" d="M68.2882 76.2812V84.1347V76.2812Z" fill="#89163B"/>
<path d="M68.2882 76.2812V84.1347" stroke="#89163B" stroke-width="2"/>
<path fill-rule="evenodd" clip-rule="evenodd" d="M68.2882 87.082V91.0087V87.082Z" fill="#89163B"/>
<path d="M68.2882 87.082V91.0087" stroke="#89163B" stroke-width="2"/>
<path opacity="0.4" d="M85.7519 49.0763V54.0032C84.5605 53.6703 83.301 53.5038 82.0074 53.5038H79.7948V49.0763C79.7948 42.3185 74.1782 36.8257 67.268 36.8257C60.3578 36.8257 54.7411 42.2852 54.7071 49.0097V53.5038H52.5285C51.2009 53.5038 49.9414 53.6703 48.75 54.0364V49.0763C48.784 39.0894 57.0558 31 67.1999 31C77.4801 31 85.7519 39.0894 85.7519 49.0763Z" fill="white"/>
</svg>
