<svg width="52" height="52" viewBox="0 0 52 52" fill="none" xmlns="http://www.w3.org/2000/svg">
<path d="M1.39893 36.21C1.39893 45.0575 7.08893 51 15.5614 51H37.2364C45.7089 51 51.3989 45.0575 51.3989 36.21V15.79C51.3989 6.945 45.7064 1 37.2339 1H15.5614C7.08893 1 1.39893 6.945 1.39893 15.79V36.21Z" fill="#E6E6E6" stroke="#E6E6E6"/>
<path fill-rule="evenodd" clip-rule="evenodd" d="M21.1365 30.04L30.4405 20.7359L21.1365 30.04Z" fill="#E6E6E6"/>
<path d="M21.1365 30.04L30.4405 20.7359" stroke="#E6E6E6"/>
<path fill-rule="evenodd" clip-rule="evenodd" d="M28.626 30.0244C28.626 30.0244 22.8506 31.7543 21.1375 30.0412C19.423 28.3267 21.1523 22.5508 21.1523 22.5508" fill="#E6E6E6"/>
<path d="M28.626 30.0244C28.626 30.0244 22.8506 31.7543 21.1375 30.0412C19.423 28.3267 21.1523 22.5508 21.1523 22.5508" stroke="#E6E6E6"/>
</svg>
