<svg width="11" height="6" viewBox="0 0 11 6" fill="none" xmlns="http://www.w3.org/2000/svg">
<path d="M10.8794 0.791217C10.8794 0.413306 10.5863 0.120003 10.2142 0.120003C10.0282 0.120003 9.8591 0.193329 9.72945 0.323059L5.87376 4.27138L2.02934 0.323059C1.89969 0.193329 1.72494 0.120003 1.54456 0.120003C1.17252 0.120003 0.879395 0.413306 0.879395 0.791217C0.879395 0.971711 0.947038 1.12964 1.07105 1.25373L5.35516 5.64201C5.50172 5.79994 5.6821 5.87891 5.87939 5.87891C6.07669 5.87891 6.2458 5.79994 6.398 5.64765L10.6877 1.25937C10.8118 1.12964 10.8794 0.971711 10.8794 0.791217Z" fill="#89163B"/>
</svg>
