<svg width="10" height="6" viewBox="0 0 10 6" fill="none" xmlns="http://www.w3.org/2000/svg">
<path d="M10 0.673258C10 0.29558 9.70688 0.00245714 9.33484 0.00245714C9.14882 0.00245714 8.97971 0.075738 8.85006 0.205389L4.99436 4.15127L1.14994 0.205389C1.02029 0.075738 0.845547 0.00245714 0.665163 0.00245714C0.293123 0.00245714 0 0.29558 0 0.673258C0 0.853641 0.0676437 1.01148 0.191657 1.13549L4.47576 5.52106C4.62232 5.67889 4.80271 5.75781 5 5.75781C5.19729 5.75781 5.3664 5.67889 5.5186 5.5267L9.80834 1.14113C9.93236 1.01148 10 0.853641 10 0.673258Z" fill="#89163B"/>
</svg>
