<svg width="11" height="6" viewBox="0 0 11 6" fill="none" xmlns="http://www.w3.org/2000/svg">
<path d="M0.87793 0.794352C0.87793 0.416674 1.17105 0.123551 1.54309 0.123551C1.72911 0.123551 1.89822 0.196832 2.02787 0.326482L5.88357 4.27237L9.72799 0.326482C9.85764 0.196832 10.0324 0.123551 10.2128 0.123551C10.5848 0.123551 10.8779 0.416674 10.8779 0.794352C10.8779 0.974735 10.8103 1.13257 10.6863 1.25658L6.40217 5.64215C6.25561 5.79999 6.07522 5.87891 5.87793 5.87891C5.68064 5.87891 5.51153 5.79999 5.35933 5.64779L1.06959 1.26222C0.945573 1.13257 0.87793 0.974735 0.87793 0.794352Z" fill="#353D46"/>
</svg>
