<svg width="11" height="7" viewBox="0 0 11 7" fill="none" xmlns="http://www.w3.org/2000/svg">
<path d="M10.8777 1.4506C10.8777 1.07292 10.5846 0.779801 10.2125 0.779801C10.0265 0.779801 9.85739 0.853082 9.72774 0.982732L5.87205 4.92862L2.02763 0.982732C1.89798 0.853082 1.72323 0.779801 1.54285 0.779801C1.17081 0.779801 0.877686 1.07292 0.877686 1.4506C0.877686 1.63098 0.945329 1.78882 1.06934 1.91283L5.35345 6.2984C5.50001 6.45624 5.68039 6.53516 5.87769 6.53516C6.07498 6.53516 6.24409 6.45624 6.39629 6.30404L10.686 1.91847C10.81 1.78882 10.8777 1.63098 10.8777 1.4506Z" fill="#353D46"/>
</svg>
