<svg width="134" height="134" viewBox="0 0 134 134" fill="none" xmlns="http://www.w3.org/2000/svg">
<path d="M67 134C104.003 134 134 104.003 134 67C134 29.9969 104.003 0 67 0C29.9969 0 0 29.9969 0 67C0 104.003 29.9969 134 67 134Z" fill="#89163B"/>
<path d="M81.1002 132.42C82.3842 132.17 83.6606 131.883 84.9278 131.558C87.0773 130.959 89.1955 130.253 91.2745 129.443C93.3579 128.637 95.3996 127.727 97.3921 126.716C99.384 125.702 101.324 124.588 103.204 123.38C105.082 122.173 106.898 120.874 108.646 119.487C110.398 118.096 112.08 116.618 113.684 115.059C115.284 113.504 116.805 111.87 118.242 110.163C119.683 108.454 121.037 106.674 122.299 104.83C123.56 102.989 124.728 101.085 125.8 99.127C126.87 97.1666 127.842 95.154 128.711 93.0965C129.583 91.0388 130.351 88.9388 131.012 86.8044C131.578 84.9362 132.062 83.0442 132.462 81.1338L92.6594 41.3307C85.5615 34.2326 76.2925 30.6875 67.011 30.6875C57.729 30.6875 48.4388 34.2321 41.3407 41.3307C27.1446 55.5269 27.1446 78.4641 41.3407 92.6603L81.1002 132.42Z" fill="#630F2A"/>
<path d="M67.0051 30.6914C76.2871 30.6914 85.5664 34.2365 92.6644 41.3346C106.861 55.5308 106.861 78.468 92.6644 92.6642C78.4683 106.86 55.531 106.86 41.3349 92.6642C27.1387 78.468 27.1387 55.5308 41.3349 41.3346C48.4329 34.2365 57.7231 30.6914 67.0051 30.6914ZM83.537 55.8273C83.0083 55.8758 82.4946 56.0789 82.0757 56.4053L61.6835 71.7049L52.2289 62.2503C50.1778 60.114 46.145 64.1468 48.2813 66.1979L59.448 77.3646C60.3869 78.3019 62.0269 78.4198 63.0902 77.6263L85.4235 60.8763C87.3032 59.5082 86.1451 55.8606 83.8205 55.8273C83.7261 55.8225 83.6314 55.8225 83.537 55.8273L83.537 55.8273Z" fill="white"/>
</svg>
