<svg width="24" height="19" viewBox="0 0 24 19" fill="none" xmlns="http://www.w3.org/2000/svg">
<path fill-rule="evenodd" clip-rule="evenodd" d="M12.2228 17.6375C8.9838 17.6375 6.2168 17.1472 6.2168 15.184C6.2168 13.2208 8.9658 11.5117 12.2228 11.5117C15.4618 11.5117 18.2288 13.2048 18.2288 15.167C18.2288 17.1292 15.4798 17.6375 12.2228 17.6375Z" stroke="#89163B" stroke-width="1.5" stroke-linecap="round" stroke-linejoin="round"/>
<path fill-rule="evenodd" clip-rule="evenodd" d="M12.2226 8.71156C14.3486 8.71156 16.0726 6.9875 16.0726 4.86019C16.0726 2.73288 14.3486 1.00781 12.2226 1.00781C10.0966 1.00781 8.37257 2.73288 8.37257 4.86019C8.36657 6.97949 10.0766 8.70455 12.1956 8.71156H12.2226Z" stroke="#89163B" stroke-width="1.5" stroke-linecap="round" stroke-linejoin="round"/>
<path d="M18.6123 7.65429C19.8493 7.32309 20.7613 6.19439 20.7613 4.85056C20.7613 3.4487 19.7683 2.27798 18.4463 2.00781" stroke="#89163B" stroke-width="1.5" stroke-linecap="round" stroke-linejoin="round"/>
<path d="M19.1934 10.8086C20.9474 10.8086 22.4454 11.9983 22.4454 13.061C22.4454 13.6864 21.9284 14.3678 21.1444 14.5519" stroke="#89163B" stroke-width="1.5" stroke-linecap="round" stroke-linejoin="round"/>
<path d="M5.83408 7.65429C4.59608 7.32309 3.68408 6.19439 3.68408 4.85056C3.68408 3.4487 4.67808 2.27798 5.99908 2.00781" stroke="#89163B" stroke-width="1.5" stroke-linecap="round" stroke-linejoin="round"/>
<path d="M4.252 10.8086C2.498 10.8086 1 11.9983 1 13.061C1 13.6864 1.517 14.3678 2.302 14.5519" stroke="#89163B" stroke-width="1.5" stroke-linecap="round" stroke-linejoin="round"/>
</svg>
