<svg width="42" height="42" viewBox="0 0 42 42" fill="none" xmlns="http://www.w3.org/2000/svg">
<circle cx="21" cy="21" r="21" fill="white"/>
<path d="M14.8238 26.32C14.1624 26.32 13.5384 26.224 12.9518 26.032C12.3758 25.84 11.8478 25.568 11.3678 25.216C10.8984 24.8533 10.4931 24.4267 10.1518 23.936C9.81042 23.4453 9.54375 22.896 9.35175 22.288C9.17042 21.68 9.07975 21.0293 9.07975 20.336C9.07975 19.6427 9.17042 18.992 9.35175 18.384C9.54375 17.776 9.81042 17.2267 10.1518 16.736C10.4931 16.2347 10.9038 15.8027 11.3838 15.44C11.8638 15.0773 12.3918 14.8 12.9678 14.608C13.5544 14.416 14.1784 14.32 14.8398 14.32C15.5011 14.32 16.1198 14.416 16.6958 14.608C17.2824 14.8 17.8104 15.0773 18.2798 15.44C18.7598 15.792 19.1704 16.2133 19.5118 16.704C19.8531 17.1947 20.1144 17.744 20.2958 18.352C20.4771 18.96 20.5678 19.6107 20.5678 20.304C20.5678 20.9973 20.4718 21.648 20.2798 22.256C20.0984 22.864 19.8371 23.4187 19.4958 23.92C19.1544 24.4107 18.7438 24.8373 18.2638 25.2C17.7944 25.5627 17.2664 25.84 16.6798 26.032C16.1038 26.224 15.4851 26.32 14.8238 26.32ZM14.8238 24.528C15.3678 24.528 15.8638 24.4267 16.3118 24.224C16.7704 24.0107 17.1651 23.7173 17.4958 23.344C17.8264 22.9707 18.0824 22.528 18.2638 22.016C18.4558 21.4933 18.5518 20.928 18.5518 20.32C18.5518 19.712 18.4558 19.152 18.2638 18.64C18.0824 18.1173 17.8264 17.6693 17.4958 17.296C17.1651 16.9227 16.7704 16.6347 16.3118 16.432C15.8638 16.2187 15.3678 16.112 14.8238 16.112C14.2798 16.112 13.7784 16.2187 13.3198 16.432C12.8718 16.6347 12.4824 16.9227 12.1518 17.296C11.8211 17.6693 11.5598 18.1173 11.3678 18.64C11.1864 19.152 11.0958 19.712 11.0958 20.32C11.0958 20.928 11.1864 21.4933 11.3678 22.016C11.5598 22.528 11.8211 22.9707 12.1518 23.344C12.4824 23.7173 12.8718 24.0107 13.3198 24.224C13.7784 24.4267 14.2798 24.528 14.8238 24.528ZM27.1831 26.32C26.5218 26.32 25.8978 26.224 25.3111 26.032C24.7351 25.84 24.2071 25.568 23.7271 25.216C23.2578 24.8533 22.8525 24.4267 22.5111 23.936C22.1698 23.4453 21.9031 22.896 21.7111 22.288C21.5298 21.68 21.4391 21.0293 21.4391 20.336C21.4391 19.6427 21.5298 18.992 21.7111 18.384C21.9031 17.776 22.1698 17.2267 22.5111 16.736C22.8525 16.2347 23.2631 15.8027 23.7431 15.44C24.2231 15.0773 24.7511 14.8 25.3271 14.608C25.9138 14.416 26.5378 14.32 27.1991 14.32C27.8605 14.32 28.4791 14.416 29.0551 14.608C29.6418 14.8 30.1698 15.0773 30.6391 15.44C31.1191 15.792 31.5298 16.2133 31.8711 16.704C32.2125 17.1947 32.4738 17.744 32.6551 18.352C32.8365 18.96 32.9271 19.6107 32.9271 20.304C32.9271 20.9973 32.8311 21.648 32.6391 22.256C32.4578 22.864 32.1965 23.4187 31.8551 23.92C31.5138 24.4107 31.1031 24.8373 30.6231 25.2C30.1538 25.5627 29.6258 25.84 29.0391 26.032C28.4631 26.224 27.8445 26.32 27.1831 26.32ZM27.1831 24.528C27.7271 24.528 28.2231 24.4267 28.6711 24.224C29.1298 24.0107 29.5245 23.7173 29.8551 23.344C30.1858 22.9707 30.4418 22.528 30.6231 22.016C30.8151 21.4933 30.9111 20.928 30.9111 20.32C30.9111 19.712 30.8151 19.152 30.6231 18.64C30.4418 18.1173 30.1858 17.6693 29.8551 17.296C29.5245 16.9227 29.1298 16.6347 28.6711 16.432C28.2231 16.2187 27.7271 16.112 27.1831 16.112C26.6391 16.112 26.1378 16.2187 25.6791 16.432C25.2311 16.6347 24.8418 16.9227 24.5111 17.296C24.1805 17.6693 23.9191 18.1173 23.7271 18.64C23.5458 19.152 23.4551 19.712 23.4551 20.32C23.4551 20.928 23.5458 21.4933 23.7271 22.016C23.9191 22.528 24.1805 22.9707 24.5111 23.344C24.8418 23.7173 25.2311 24.0107 25.6791 24.224C26.1378 24.4267 26.6391 24.528 27.1831 24.528Z" fill="#353D46"/>
</svg>
