<svg width="82" height="82" viewBox="0 0 82 82" fill="none" xmlns="http://www.w3.org/2000/svg">
<circle cx="41" cy="41" r="40" fill="#FCF9FA" stroke="#89163B" stroke-opacity="0.1"/>
<path d="M56.0001 45.0527V47.128C56.0001 47.4724 55.9851 47.8198 55.955 48.1641C55.5342 52.9027 52.2426 55.9992 47.4931 55.9992H34.5071C32.1023 55.9992 30.0733 55.2187 28.6154 53.8035C28.0442 53.2787 27.5633 52.6621 27.1875 51.9553C27.6835 51.3523 28.2396 50.6921 28.7807 50.0304C29.6975 48.9326 30.5843 47.8483 31.1404 47.143C31.9671 46.1204 34.1464 43.4285 37.1675 44.6918C37.7837 44.9474 38.3248 45.3083 38.8208 45.6241C40.0382 46.4362 40.5492 46.6768 41.4059 46.2106C42.3528 45.6993 42.9691 44.6918 43.6154 43.6391C43.961 43.0811 44.3067 42.5413 44.6825 42.045C46.3208 39.9095 48.8458 39.3381 50.95 40.6013C52.0021 41.2329 52.9039 42.03 53.7456 42.8405C53.926 43.021 54.1063 43.1879 54.2717 43.3533C54.4971 43.5789 55.2486 44.3308 56.0001 45.0527" fill="white"/>
<path d="M47.508 26H34.507C29.4118 26 26 29.5641 26 34.8712V47.129C26 48.9772 26.4208 50.6179 27.1874 51.9563C27.6834 51.3533 28.2395 50.6931 28.7806 50.0299C29.6974 48.9336 30.5842 47.8493 31.1403 47.144C31.9669 46.1214 34.1463 43.4295 37.1673 44.6928C37.7836 44.9484 38.3247 45.3093 38.8206 45.6251C40.0381 46.4372 40.5491 46.6778 41.4058 46.2101C42.3527 45.7003 42.9689 44.6928 43.6152 43.6386C43.9609 43.0821 44.3066 42.5423 44.6824 42.046C46.3206 39.9105 48.8457 39.3391 50.9499 40.6023C52.002 41.2339 52.9038 42.031 53.7455 42.8415C53.9259 43.022 54.1062 43.1889 54.2715 43.3543C54.497 43.5784 55.2485 44.3303 56 45.0537V34.8712C56 29.5641 52.5882 26 47.508 26" fill="#89163B"/>
<path d="M40.1814 36.1966C40.1814 38.3095 38.4214 40.069 36.3097 40.069C34.1995 40.069 32.4395 38.3095 32.4395 36.1966C32.4395 34.0852 34.1995 32.3242 36.3097 32.3242C38.4214 32.3242 40.1814 34.0852 40.1814 36.1966" fill="white"/>
</svg>
