<svg width="189" height="188" viewBox="0 0 189 188" fill="none" xmlns="http://www.w3.org/2000/svg">
<circle cx="94.4998" cy="93.53" r="66.5" transform="rotate(39 94.4998 93.53)" fill="#F5F5F5"/>
<path d="M79.3525 101.393L88.3315 89.7258L98.5735 97.7658L107.361 86.4258" stroke="black" stroke-width="1.5" stroke-linecap="round" stroke-linejoin="round"/>
<path fill-rule="evenodd" clip-rule="evenodd" d="M117.602 63.8809C120.788 63.8809 123.368 66.4609 123.368 69.6469C123.368 72.8299 120.788 75.4129 117.602 75.4129C114.416 75.4129 111.836 72.8299 111.836 69.6469C111.836 66.4609 114.416 63.8809 117.602 63.8809Z" stroke="black" stroke-width="1.5" stroke-linecap="round" stroke-linejoin="round"/>
<path d="M120.868 84.6382C121.267 87.3232 121.45 90.3472 121.45 93.7402C121.45 114.554 114.514 121.49 93.6997 121.49C72.8887 121.49 65.9497 114.554 65.9497 93.7402C65.9497 72.9292 72.8887 65.9902 93.6997 65.9902C97.0297 65.9902 100.003 66.1672 102.649 66.5512" stroke="black" stroke-width="1.5" stroke-linecap="round" stroke-linejoin="round"/>
</svg>
