<svg width="188" height="188" viewBox="0 0 188 188" fill="none" xmlns="http://www.w3.org/2000/svg">
<circle cx="94.44" cy="93.53" r="66.5" transform="rotate(39 94.44 93.53)" fill="#F5F5F5"/>
<path fill-rule="evenodd" clip-rule="evenodd" d="M94.515 121.922C83.7183 121.922 74.495 120.289 74.495 113.749C74.495 107.209 83.6583 101.516 94.515 101.516C105.312 101.516 114.535 107.156 114.535 113.692C114.535 120.229 105.372 121.922 94.515 121.922Z" stroke="black" stroke-width="1.5" stroke-linecap="round" stroke-linejoin="round"/>
<path fill-rule="evenodd" clip-rule="evenodd" d="M94.515 92.1907C101.602 92.1907 107.348 86.4473 107.348 79.3607C107.348 72.274 101.602 66.5273 94.515 66.5273C87.4284 66.5273 81.6817 72.274 81.6817 79.3607C81.6617 86.4207 87.3617 92.1673 94.425 92.1907H94.515Z" stroke="black" stroke-width="1.5" stroke-linecap="round" stroke-linejoin="round"/>
<path d="M115.814 88.6655C119.937 87.5621 122.977 83.8021 122.977 79.3255C122.977 74.6555 119.667 70.7555 115.261 69.8555" stroke="black" stroke-width="1.5" stroke-linecap="round" stroke-linejoin="round"/>
<path d="M117.751 99.1758C123.597 99.1758 128.591 103.139 128.591 106.679C128.591 108.762 126.867 111.032 124.254 111.646" stroke="black" stroke-width="1.5" stroke-linecap="round" stroke-linejoin="round"/>
<path d="M73.2193 88.6655C69.0927 87.5621 66.0527 83.8021 66.0527 79.3255C66.0527 74.6555 69.366 70.7555 73.7693 69.8555" stroke="black" stroke-width="1.5" stroke-linecap="round" stroke-linejoin="round"/>
<path d="M71.2793 99.1758C65.4327 99.1758 60.4393 103.139 60.4393 106.679C60.4393 108.762 62.1627 111.032 64.7793 111.646" stroke="black" stroke-width="1.5" stroke-linecap="round" stroke-linejoin="round"/>
</svg>
