<svg width="188" height="188" viewBox="0 0 188 188" fill="none" xmlns="http://www.w3.org/2000/svg">
<circle cx="94.44" cy="93.53" r="66.5" transform="rotate(39 94.44 93.53)" fill="#F5F5F5"/>
<path fill-rule="evenodd" clip-rule="evenodd" d="M110.376 99.9321C112.375 99.9321 114.053 101.582 113.748 103.556C111.954 115.17 102.012 123.793 90.0204 123.793C76.7534 123.793 66.0001 113.04 66.0001 99.7762C66.0001 88.8482 74.3021 78.6688 83.6489 76.3671C85.6573 75.8713 87.7157 77.284 87.7157 79.3518C87.7157 93.361 88.1866 96.985 90.8469 98.956C93.5071 100.927 96.6352 99.9321 110.376 99.9321Z" stroke="black" stroke-width="1.5" stroke-linecap="round" stroke-linejoin="round"/>
<path fill-rule="evenodd" clip-rule="evenodd" d="M123.456 88.2625C123.615 79.2619 112.559 64.7537 99.0864 65.0032C98.0385 65.0219 97.1996 65.8951 97.1528 66.9399C96.8128 74.3406 97.2713 83.9307 97.527 88.2781C97.605 89.6317 98.6685 90.6951 100.019 90.7731C104.488 91.0288 114.427 91.3781 121.722 90.2741C122.714 90.1244 123.44 89.2637 123.456 88.2625Z" stroke="black" stroke-width="1.5" stroke-linecap="round" stroke-linejoin="round"/>
</svg>
