<svg width="20" height="20" viewBox="0 0 20 20" fill="none" xmlns="http://www.w3.org/2000/svg">
<path d="M10 0H9.99039H9.97596C4.46154 0.0144231 0 4.48558 0 10C0 15.5144 4.46154 19.9856 9.97596 20H10C15.524 20 20 15.524 20 10C20 4.47596 15.524 0 10 0ZM10.399 5.98558C11.4615 5.95673 12.4904 5.81731 13.4856 5.57692C13.7837 6.75481 13.9712 8.11539 14 9.60577H10.399V5.98558ZM10.399 5.18269V0.865385C11.476 1.16346 12.5721 2.60096 13.2644 4.80769C12.3413 5.02885 11.3846 5.15385 10.399 5.18269ZM9.60096 0.855769V5.1875C8.60577 5.15865 7.63942 5.02885 6.71154 4.80288C7.41346 2.58173 8.51442 1.13462 9.60096 0.855769ZM9.60096 5.98558V9.60096H5.97596C6.00481 8.11058 6.19231 6.75 6.49038 5.57212C7.49038 5.8125 8.53365 5.95673 9.60096 5.98558ZM5.16827 9.60096H0.8125C0.899039 7.54327 1.66827 5.65865 2.89423 4.16827C3.78365 4.65865 4.73077 5.0625 5.72115 5.36058C5.39423 6.63462 5.20192 8.07211 5.16827 9.60096ZM5.16827 10.399C5.19712 11.9231 5.38942 13.3654 5.71635 14.6394C4.72596 14.9423 3.78365 15.3413 2.88942 15.8317C1.66346 14.3413 0.899039 12.4567 0.807692 10.399H5.16827ZM5.97596 10.399H9.60096V14.0096C8.53365 14.0385 7.49038 14.1827 6.49038 14.4279C6.19231 13.25 6.00481 11.8894 5.97596 10.399ZM9.60096 14.8125V19.149C8.51442 18.8654 7.41346 17.4231 6.71154 15.2019C7.63942 14.9712 8.60577 14.8413 9.60096 14.8125ZM10.399 19.1346V14.8077C11.3846 14.8365 12.3413 14.9663 13.2692 15.1875C12.5721 17.399 11.4808 18.8365 10.399 19.1346ZM10.399 14.0096V10.399H14C13.9712 11.8846 13.7837 13.2452 13.4856 14.4231C12.4904 14.1827 11.4615 14.0385 10.399 14.0096ZM14.8029 10.399H19.1875C19.101 12.4567 18.3317 14.3365 17.1058 15.8317C16.2067 15.3365 15.2548 14.9327 14.2548 14.6298C14.5817 13.3558 14.774 11.9231 14.8029 10.399ZM14.8029 9.60096C14.774 8.07692 14.5817 6.63942 14.2596 5.36539C15.2596 5.0625 16.2115 4.65865 17.1058 4.16827C18.3317 5.65865 19.101 7.54327 19.1875 9.60577H14.8029V9.60096ZM16.5577 3.55288C15.7596 3.97596 14.9231 4.32692 14.0433 4.59135C13.5769 3.08654 12.9183 1.86058 12.1442 1.05288C13.8462 1.46154 15.3654 2.34615 16.5577 3.55288ZM7.82692 1.0625C7.05289 1.86538 6.39904 3.09135 5.9375 4.58654C5.06731 4.32211 4.23558 3.97596 3.44712 3.55288C4.625 2.35096 6.13462 1.47115 7.82692 1.0625ZM3.44231 16.4423C4.23077 16.0192 5.06731 15.6731 5.93269 15.4087C6.39904 16.9087 7.05289 18.1298 7.82692 18.9375C6.13462 18.5288 4.625 17.649 3.44231 16.4423ZM12.1442 18.9471C12.9231 18.1394 13.5769 16.9135 14.0481 15.4038C14.9279 15.6683 15.7644 16.0192 16.5625 16.4423C15.3702 17.6538 13.8462 18.5385 12.1442 18.9471Z" fill="#353D46"/>
</svg>
