<svg width="484" height="241" viewBox="0 0 484 241" fill="none" xmlns="http://www.w3.org/2000/svg">
<mask id="path-1-inside-1_3200_15542" fill="white">
<path fill-rule="evenodd" clip-rule="evenodd" d="M2 214.5H482H2Z"/>
</mask>
<path fill-rule="evenodd" clip-rule="evenodd" d="M2 214.5H482H2Z" fill="white"/>
<path d="M2 215.5H482V213.5H2V215.5Z" fill="#777777" fill-opacity="0.2" mask="url(#path-1-inside-1_3200_15542)"/>
<path fill-rule="evenodd" clip-rule="evenodd" d="M0 139.5C20.5916 139.5 42.2161 176.844 63.5116 176.844C84.8071 176.844 84.1032 113.942 104.031 113.942C123.958 113.942 127.462 48.794 147.871 48.794C168.279 48.794 167.098 58.3416 187.725 58.3416C208.352 58.3416 208.104 39.2465 229.573 39.2465C251.041 39.2465 249.287 80.8064 270.756 80.8064C292.225 80.8064 292.154 133.037 311.939 133.037C331.724 133.037 333.824 68.7316 354.451 68.7316C375.077 68.7316 373.922 80.8064 394.969 80.8064C416.017 80.8064 415.526 48.794 436.153 48.794C456.779 48.794 462.452 36 483.5 36V211H0" fill="url(#paint0_linear_3200_15542)"/>
<path d="M2 145.564C23.6983 145.564 24.2637 167 46.7037 167C69.1438 167 69.1074 158.77 90.1057 158.77C111.104 158.77 113.37 106.237 134.875 106.237C156.38 106.237 156.558 79 178.293 79C200.029 79 199.642 86.8974 222.264 86.8974C244.887 86.8974 242.62 98.7319 265.243 98.7319C287.865 98.7319 288.089 137.988 308.937 137.988C329.786 137.988 328.163 101.618 349.898 101.618C371.634 101.618 374.506 101.618 396.685 101.618C418.864 101.618 417.928 110.278 439.663 110.278C461.399 110.278 460.821 91.1282 483 91.1282" stroke="#353D46"/>
<path d="M0.5 139C21.0916 139 42.2161 176 63.5116 176C84.8071 176 84.1032 113.028 104.031 113.028C123.958 113.028 127.462 47.8072 147.871 47.8072C168.279 47.8072 167.098 57.3655 187.725 57.3655C208.352 57.3655 208.104 38.249 229.573 38.249C251.041 38.249 249.287 79.8554 270.756 79.8554C292.225 79.8554 292.154 132.145 311.939 132.145C331.724 132.145 333.824 67.7671 354.451 67.7671C375.077 67.7671 373.922 79.8554 394.969 79.8554C416.017 79.8554 415.526 47.8072 436.153 47.8072C456.779 47.8072 461.952 36 483 36" stroke="#89163B" stroke-width="1.5"/>
<circle cx="225" cy="39" r="6" fill="white" stroke="#89163B" stroke-width="6"/>
<circle cx="469.5" cy="37.5" r="2" fill="white" stroke="#89163B"/>
<circle cx="436.5" cy="47.5" r="2" fill="white" stroke="#89163B"/>
<circle cx="412.5" cy="69.5" r="2" fill="white" stroke="#89163B"/>
<circle cx="469.5" cy="93.5" r="2" fill="white" stroke="#353D46"/>
<circle cx="426.5" cy="108.5" r="2" fill="white" stroke="#353D46"/>
<circle cx="351.5" cy="102.5" r="2" fill="white" stroke="#353D46"/>
<circle cx="236.5" cy="89.5" r="2" fill="white" stroke="#353D46"/>
<circle cx="332.5" cy="100.5" r="2" fill="white" stroke="#89163B"/>
<circle cx="311.5" cy="131.5" r="2" fill="white" stroke="#89163B"/>
<circle cx="279.5" cy="82.5" r="2" fill="white" stroke="#89163B"/>
<circle cx="166.5" cy="52.5" r="2" fill="white" stroke="#89163B"/>
<circle cx="138.5" cy="52.5" r="2" fill="white" stroke="#89163B"/>
<circle cx="108.5" cy="111.5" r="2" fill="white" stroke="#89163B"/>
<circle cx="82.5" cy="148.5" r="2" fill="white" stroke="#89163B"/>
<circle cx="3.5" cy="139.5" r="2" fill="white" stroke="#89163B"/>
<g filter="url(#filter0_d_3200_15542)">
<rect x="181" y="48" width="91" height="19" rx="8" fill="white"/>
</g>
<path d="M187.668 61.15C187.288 61.15 186.941 61.08 186.628 60.94C186.321 60.7933 186.058 60.5867 185.838 60.32C185.618 60.0533 185.451 59.7267 185.338 59.34L186.518 59.09C186.751 59.73 187.138 60.05 187.678 60.05C187.898 60.05 188.088 59.9967 188.248 59.89C188.414 59.7767 188.541 59.62 188.628 59.42C188.714 59.22 188.758 58.9867 188.758 58.72V53.9H189.978V58.69C189.978 59.0567 189.921 59.3933 189.808 59.7C189.701 60 189.544 60.26 189.338 60.48C189.138 60.6933 188.894 60.86 188.608 60.98C188.328 61.0933 188.014 61.15 187.668 61.15ZM193.518 61.15C193.051 61.15 192.644 61.05 192.298 60.85C191.958 60.65 191.691 60.3667 191.498 60C191.311 59.6267 191.218 59.19 191.218 58.69V55.77H192.368V58.71C192.368 59.1433 192.471 59.4867 192.678 59.74C192.884 59.9867 193.168 60.11 193.528 60.11C193.888 60.11 194.171 59.9867 194.378 59.74C194.584 59.4867 194.688 59.1433 194.688 58.71V55.77H195.838V58.69C195.838 59.1833 195.741 59.6167 195.548 59.99C195.361 60.3567 195.094 60.6433 194.748 60.85C194.401 61.05 193.991 61.15 193.518 61.15ZM197.077 61V53.56H198.227V61H197.077ZM201.449 61V60.12C201.789 59.84 202.085 59.59 202.339 59.37C202.599 59.1433 202.829 58.9367 203.029 58.75C203.229 58.5633 203.415 58.3833 203.589 58.21C203.889 57.91 204.129 57.6467 204.309 57.42C204.495 57.1933 204.632 56.98 204.719 56.78C204.805 56.58 204.849 56.3733 204.849 56.16C204.849 55.9267 204.802 55.7233 204.709 55.55C204.615 55.3767 204.485 55.2433 204.319 55.15C204.159 55.05 203.969 55 203.749 55C203.449 55 203.189 55.0967 202.969 55.29C202.749 55.4767 202.595 55.7367 202.509 56.07L201.409 55.85C201.495 55.47 201.649 55.1367 201.869 54.85C202.095 54.5633 202.372 54.3433 202.699 54.19C203.032 54.03 203.392 53.95 203.779 53.95C204.105 53.95 204.405 54.0067 204.679 54.12C204.952 54.2267 205.189 54.38 205.389 54.58C205.595 54.7733 205.752 55.0033 205.859 55.27C205.972 55.53 206.029 55.8167 206.029 56.13C206.029 56.4167 205.975 56.6967 205.869 56.97C205.762 57.2433 205.592 57.5267 205.359 57.82C205.132 58.1133 204.839 58.4367 204.479 58.79C204.105 59.1567 203.675 59.5433 203.189 59.95H206.149V61H201.449ZM209.692 61.15C209.292 61.15 208.932 61.07 208.612 60.91C208.292 60.7433 208.019 60.5033 207.792 60.19C207.566 59.8767 207.392 59.5 207.272 59.06C207.159 58.62 207.102 58.1267 207.102 57.58C207.102 57.0133 207.162 56.5067 207.282 56.06C207.409 55.6133 207.589 55.2333 207.822 54.92C208.056 54.6067 208.336 54.3667 208.662 54.2C208.989 54.0333 209.352 53.95 209.752 53.95C210.159 53.95 210.519 54.0333 210.832 54.2C211.152 54.3667 211.422 54.6067 211.642 54.92C211.862 55.2333 212.029 55.61 212.142 56.05C212.262 56.4833 212.322 56.9733 212.322 57.52C212.322 58.08 212.262 58.5833 212.142 59.03C212.022 59.4767 211.846 59.86 211.612 60.18C211.386 60.4933 211.109 60.7333 210.782 60.9C210.462 61.0667 210.099 61.15 209.692 61.15ZM209.712 60.07C210.159 60.07 210.506 59.8533 210.752 59.42C211.006 58.98 211.132 58.3567 211.132 57.55C211.132 56.7433 211.006 56.1233 210.752 55.69C210.506 55.25 210.159 55.03 209.712 55.03C209.266 55.03 208.916 55.25 208.662 55.69C208.416 56.1233 208.292 56.7433 208.292 57.55C208.292 58.3567 208.416 58.98 208.662 59.42C208.916 59.8533 209.266 60.07 209.712 60.07ZM216.174 59.01C216.034 59.01 215.908 58.9767 215.794 58.91C215.681 58.8433 215.588 58.7533 215.514 58.64C215.448 58.52 215.414 58.39 215.414 58.25C215.414 58.11 215.448 57.9833 215.514 57.87C215.588 57.75 215.681 57.6567 215.794 57.59C215.908 57.5233 216.034 57.49 216.174 57.49C216.314 57.49 216.441 57.5233 216.554 57.59C216.668 57.6567 216.758 57.75 216.824 57.87C216.898 57.9833 216.934 58.11 216.934 58.25C216.934 58.39 216.898 58.52 216.824 58.64C216.758 58.7533 216.668 58.8433 216.554 58.91C216.441 58.9767 216.314 59.01 216.174 59.01ZM220.272 61V59.05H219.572V58.05H220.272V56.65H219.572V55.65H220.272V53.9H221.362L222.582 55.65H224.892V53.9H226.082V55.65H227.092V56.65H226.082V58.05H227.092V59.05H226.082V61H225.002L223.652 59.05H221.462V61H220.272ZM221.462 58.05H222.952L221.982 56.65H221.462V58.05ZM224.242 58.05H224.892V56.65H223.272L224.242 58.05ZM231.301 61V55.37L229.801 56.21L229.391 55.24L231.481 54.1H232.461V61H231.301ZM233.978 61V60.12C234.318 59.84 234.614 59.59 234.868 59.37C235.128 59.1433 235.358 58.9367 235.558 58.75C235.758 58.5633 235.944 58.3833 236.118 58.21C236.418 57.91 236.658 57.6467 236.838 57.42C237.024 57.1933 237.161 56.98 237.248 56.78C237.334 56.58 237.378 56.3733 237.378 56.16C237.378 55.9267 237.331 55.7233 237.238 55.55C237.144 55.3767 237.014 55.2433 236.848 55.15C236.688 55.05 236.498 55 236.278 55C235.978 55 235.718 55.0967 235.498 55.29C235.278 55.4767 235.124 55.7367 235.038 56.07L233.938 55.85C234.024 55.47 234.178 55.1367 234.398 54.85C234.624 54.5633 234.901 54.3433 235.228 54.19C235.561 54.03 235.921 53.95 236.308 53.95C236.634 53.95 236.934 54.0067 237.208 54.12C237.481 54.2267 237.718 54.38 237.918 54.58C238.124 54.7733 238.281 55.0033 238.388 55.27C238.501 55.53 238.558 55.8167 238.558 56.13C238.558 56.4167 238.504 56.6967 238.398 56.97C238.291 57.2433 238.121 57.5267 237.888 57.82C237.661 58.1133 237.368 58.4367 237.008 58.79C236.634 59.1567 236.204 59.5433 235.718 59.95H238.678V61H233.978ZM242.222 61.15C241.822 61.15 241.462 61.07 241.142 60.91C240.822 60.7433 240.548 60.5033 240.322 60.19C240.095 59.8767 239.922 59.5 239.802 59.06C239.688 58.62 239.632 58.1267 239.632 57.58C239.632 57.0133 239.692 56.5067 239.812 56.06C239.938 55.6133 240.118 55.2333 240.352 54.92C240.585 54.6067 240.865 54.3667 241.192 54.2C241.518 54.0333 241.882 53.95 242.282 53.95C242.688 53.95 243.048 54.0333 243.362 54.2C243.682 54.3667 243.952 54.6067 244.172 54.92C244.392 55.2333 244.558 55.61 244.672 56.05C244.792 56.4833 244.852 56.9733 244.852 57.52C244.852 58.08 244.792 58.5833 244.672 59.03C244.552 59.4767 244.375 59.86 244.142 60.18C243.915 60.4933 243.638 60.7333 243.312 60.9C242.992 61.0667 242.628 61.15 242.222 61.15ZM242.242 60.07C242.688 60.07 243.035 59.8533 243.282 59.42C243.535 58.98 243.662 58.3567 243.662 57.55C243.662 56.7433 243.535 56.1233 243.282 55.69C243.035 55.25 242.688 55.03 242.242 55.03C241.795 55.03 241.445 55.25 241.192 55.69C240.945 56.1233 240.822 56.7433 240.822 57.55C240.822 58.3567 240.945 58.98 241.192 59.42C241.445 59.8533 241.795 60.07 242.242 60.07ZM245.869 62.73L245.629 62.06C245.916 61.96 246.143 61.81 246.309 61.61C246.483 61.4167 246.569 61.2033 246.569 60.97C246.569 60.8833 246.559 60.8033 246.539 60.73C246.453 60.7967 246.353 60.83 246.239 60.83C246.126 60.83 246.019 60.8033 245.919 60.75C245.826 60.69 245.749 60.61 245.689 60.51C245.636 60.41 245.609 60.3 245.609 60.18C245.609 60.06 245.643 59.95 245.709 59.85C245.776 59.75 245.863 59.67 245.969 59.61C246.083 59.55 246.206 59.52 246.339 59.52C246.533 59.52 246.706 59.58 246.859 59.7C247.019 59.8133 247.143 59.97 247.229 60.17C247.323 60.37 247.369 60.5933 247.369 60.84C247.369 61.1333 247.306 61.4033 247.179 61.65C247.059 61.9033 246.886 62.12 246.659 62.3C246.439 62.4867 246.176 62.63 245.869 62.73ZM250.493 61.15C250.093 61.15 249.733 61.07 249.413 60.91C249.093 60.7433 248.82 60.5033 248.593 60.19C248.366 59.8767 248.193 59.5 248.073 59.06C247.96 58.62 247.903 58.1267 247.903 57.58C247.903 57.0133 247.963 56.5067 248.083 56.06C248.21 55.6133 248.39 55.2333 248.623 54.92C248.856 54.6067 249.136 54.3667 249.463 54.2C249.79 54.0333 250.153 53.95 250.553 53.95C250.96 53.95 251.32 54.0333 251.633 54.2C251.953 54.3667 252.223 54.6067 252.443 54.92C252.663 55.2333 252.83 55.61 252.943 56.05C253.063 56.4833 253.123 56.9733 253.123 57.52C253.123 58.08 253.063 58.5833 252.943 59.03C252.823 59.4767 252.646 59.86 252.413 60.18C252.186 60.4933 251.91 60.7333 251.583 60.9C251.263 61.0667 250.9 61.15 250.493 61.15ZM250.513 60.07C250.96 60.07 251.306 59.8533 251.553 59.42C251.806 58.98 251.933 58.3567 251.933 57.55C251.933 56.7433 251.806 56.1233 251.553 55.69C251.306 55.25 250.96 55.03 250.513 55.03C250.066 55.03 249.716 55.25 249.463 55.69C249.216 56.1233 249.093 56.7433 249.093 57.55C249.093 58.3567 249.216 58.98 249.463 59.42C249.716 59.8533 250.066 60.07 250.513 60.07ZM256.616 61.15C256.216 61.15 255.856 61.07 255.536 60.91C255.216 60.7433 254.943 60.5033 254.716 60.19C254.49 59.8767 254.316 59.5 254.196 59.06C254.083 58.62 254.026 58.1267 254.026 57.58C254.026 57.0133 254.086 56.5067 254.206 56.06C254.333 55.6133 254.513 55.2333 254.746 54.92C254.98 54.6067 255.26 54.3667 255.586 54.2C255.913 54.0333 256.276 53.95 256.676 53.95C257.083 53.95 257.443 54.0333 257.756 54.2C258.076 54.3667 258.346 54.6067 258.566 54.92C258.786 55.2333 258.953 55.61 259.066 56.05C259.186 56.4833 259.246 56.9733 259.246 57.52C259.246 58.08 259.186 58.5833 259.066 59.03C258.946 59.4767 258.77 59.86 258.536 60.18C258.31 60.4933 258.033 60.7333 257.706 60.9C257.386 61.0667 257.023 61.15 256.616 61.15ZM256.636 60.07C257.083 60.07 257.43 59.8533 257.676 59.42C257.93 58.98 258.056 58.3567 258.056 57.55C258.056 56.7433 257.93 56.1233 257.676 55.69C257.43 55.25 257.083 55.03 256.636 55.03C256.19 55.03 255.84 55.25 255.586 55.69C255.34 56.1233 255.216 56.7433 255.216 57.55C255.216 58.3567 255.34 58.98 255.586 59.42C255.84 59.8533 256.19 60.07 256.636 60.07ZM262.739 61.15C262.339 61.15 261.979 61.07 261.659 60.91C261.339 60.7433 261.066 60.5033 260.839 60.19C260.613 59.8767 260.439 59.5 260.319 59.06C260.206 58.62 260.149 58.1267 260.149 57.58C260.149 57.0133 260.209 56.5067 260.329 56.06C260.456 55.6133 260.636 55.2333 260.869 54.92C261.103 54.6067 261.383 54.3667 261.709 54.2C262.036 54.0333 262.399 53.95 262.799 53.95C263.206 53.95 263.566 54.0333 263.879 54.2C264.199 54.3667 264.469 54.6067 264.689 54.92C264.909 55.2333 265.076 55.61 265.189 56.05C265.309 56.4833 265.369 56.9733 265.369 57.52C265.369 58.08 265.309 58.5833 265.189 59.03C265.069 59.4767 264.893 59.86 264.659 60.18C264.433 60.4933 264.156 60.7333 263.829 60.9C263.509 61.0667 263.146 61.15 262.739 61.15ZM262.759 60.07C263.206 60.07 263.553 59.8533 263.799 59.42C264.053 58.98 264.179 58.3567 264.179 57.55C264.179 56.7433 264.053 56.1233 263.799 55.69C263.553 55.25 263.206 55.03 262.759 55.03C262.313 55.03 261.963 55.25 261.709 55.69C261.463 56.1233 261.339 56.7433 261.339 57.55C261.339 58.3567 261.463 58.98 261.709 59.42C261.963 59.8533 262.313 60.07 262.759 60.07Z" fill="#353D46"/>
<path d="M17.266 237L21.228 227.06H23.048L27.024 237H25.26L24.322 234.536H19.898L18.96 237H17.266ZM20.458 233.08H23.762L22.11 228.782L20.458 233.08ZM28.1629 239.772V229.678H29.6329L29.7029 230.854C29.9643 230.425 30.3096 230.089 30.7389 229.846C31.1683 229.594 31.6489 229.468 32.1809 229.468C32.6663 229.468 33.1143 229.566 33.5249 229.762C33.9449 229.958 34.3089 230.229 34.6169 230.574C34.9249 230.919 35.1629 231.325 35.3309 231.792C35.5083 232.259 35.5969 232.763 35.5969 233.304C35.5969 233.855 35.5083 234.368 35.3309 234.844C35.1536 235.32 34.9063 235.735 34.5889 236.09C34.2716 236.445 33.8983 236.72 33.4689 236.916C33.0489 237.112 32.5916 237.21 32.0969 237.21C31.6116 237.21 31.1683 237.107 30.7669 236.902C30.3656 236.697 30.0343 236.407 29.7729 236.034V239.772H28.1629ZM31.8449 235.754C32.2463 235.754 32.6056 235.651 32.9229 235.446C33.2403 235.231 33.4876 234.942 33.6649 234.578C33.8516 234.214 33.9449 233.799 33.9449 233.332C33.9449 232.865 33.8516 232.455 33.6649 232.1C33.4876 231.736 33.2403 231.451 32.9229 231.246C32.6056 231.031 32.2463 230.924 31.8449 230.924C31.4436 230.924 31.0843 231.031 30.7669 231.246C30.4496 231.451 30.1976 231.736 30.0109 232.1C29.8336 232.455 29.7449 232.865 29.7449 233.332C29.7449 233.799 29.8336 234.214 30.0109 234.578C30.1976 234.942 30.4496 235.231 30.7669 235.446C31.0843 235.651 31.4436 235.754 31.8449 235.754ZM37.0086 237V229.678H38.4786L38.5486 230.882C38.7353 230.471 38.992 230.154 39.3186 229.93C39.6546 229.697 40.0466 229.58 40.4946 229.58C40.6346 229.58 40.77 229.589 40.9006 229.608C41.0313 229.627 41.148 229.659 41.2506 229.706L41.0686 231.274C40.966 231.237 40.8586 231.213 40.7466 231.204C40.6346 231.185 40.5226 231.176 40.4106 231.176C39.8506 231.176 39.412 231.363 39.0946 231.736C38.7773 232.109 38.6186 232.627 38.6186 233.29V237H37.0086Z" fill="#353D46"/>
<path d="M78.98 237V227.06H80.632L83.936 233.15L87.254 227.06H88.836V237H87.142V230.14L84.538 234.928H83.278L80.674 230.14V237H78.98ZM92.9205 237.21C92.5472 237.21 92.2018 237.154 91.8845 237.042C91.5765 236.93 91.3058 236.771 91.0725 236.566C90.8392 236.361 90.6572 236.118 90.5265 235.838C90.3958 235.558 90.3305 235.25 90.3305 234.914C90.3305 234.447 90.4518 234.041 90.6945 233.696C90.9465 233.341 91.2965 233.066 91.7445 232.87C92.1925 232.674 92.7152 232.576 93.3125 232.576C93.6392 232.576 93.9518 232.609 94.2505 232.674C94.5492 232.73 94.8338 232.814 95.1045 232.926V232.464C95.1045 232.137 95.0438 231.853 94.9225 231.61C94.8012 231.358 94.6285 231.162 94.4045 231.022C94.1805 230.882 93.9098 230.812 93.5925 230.812C93.2565 230.812 92.9532 230.901 92.6825 231.078C92.4118 231.255 92.2112 231.503 92.0805 231.82L90.5965 231.484C90.7085 231.073 90.9092 230.719 91.1985 230.42C91.4972 230.121 91.8518 229.888 92.2625 229.72C92.6825 229.552 93.1352 229.468 93.6205 229.468C94.0778 229.468 94.4932 229.543 94.8665 229.692C95.2492 229.841 95.5758 230.051 95.8465 230.322C96.1172 230.593 96.3272 230.915 96.4765 231.288C96.6258 231.661 96.7005 232.077 96.7005 232.534V237H95.2305L95.1745 236.034C94.9785 236.389 94.6845 236.673 94.2925 236.888C93.9005 237.103 93.4432 237.21 92.9205 237.21ZM91.9545 234.844C91.9545 235.049 92.0105 235.236 92.1225 235.404C92.2345 235.563 92.3885 235.689 92.5845 235.782C92.7898 235.875 93.0278 235.922 93.2985 235.922C93.6438 235.922 93.9518 235.847 94.2225 235.698C94.4932 235.549 94.7078 235.348 94.8665 235.096C95.0252 234.835 95.1045 234.541 95.1045 234.214V234.046C94.8618 233.943 94.6098 233.864 94.3485 233.808C94.0965 233.743 93.8352 233.71 93.5645 233.71C93.0792 233.71 92.6872 233.813 92.3885 234.018C92.0992 234.223 91.9545 234.499 91.9545 234.844ZM99.18 239.912C98.9467 239.912 98.7274 239.889 98.522 239.842C98.326 239.795 98.1347 239.721 97.948 239.618L98.298 238.344C98.4007 238.391 98.5174 238.428 98.648 238.456C98.7787 238.493 98.9047 238.512 99.026 238.512C99.306 238.512 99.5487 238.433 99.754 238.274C99.9687 238.115 100.146 237.859 100.286 237.504L100.51 236.93L97.528 229.678H99.292L101.266 235.152L103.058 229.678H104.766L101.658 237.882C101.387 238.582 101.047 239.095 100.636 239.422C100.235 239.749 99.7494 239.912 99.18 239.912Z" fill="#353D46"/>
<path d="M144.486 237.21C143.954 237.21 143.469 237.112 143.03 236.916C142.601 236.711 142.232 236.421 141.924 236.048C141.616 235.675 141.383 235.217 141.224 234.676L142.876 234.326C143.203 235.222 143.744 235.67 144.5 235.67C144.808 235.67 145.074 235.595 145.298 235.446C145.531 235.287 145.709 235.068 145.83 234.788C145.951 234.508 146.012 234.181 146.012 233.808V227.06H147.72V233.766C147.72 234.279 147.641 234.751 147.482 235.18C147.333 235.6 147.113 235.964 146.824 236.272C146.544 236.571 146.203 236.804 145.802 236.972C145.41 237.131 144.971 237.21 144.486 237.21ZM152.676 237.21C152.023 237.21 151.453 237.07 150.968 236.79C150.492 236.51 150.119 236.113 149.848 235.6C149.587 235.077 149.456 234.466 149.456 233.766V229.678H151.066V233.794C151.066 234.401 151.211 234.881 151.5 235.236C151.789 235.581 152.186 235.754 152.69 235.754C153.194 235.754 153.591 235.581 153.88 235.236C154.169 234.881 154.314 234.401 154.314 233.794V229.678H155.924V233.766C155.924 234.457 155.789 235.063 155.518 235.586C155.257 236.099 154.883 236.501 154.398 236.79C153.913 237.07 153.339 237.21 152.676 237.21ZM157.659 237V229.678H159.129L159.185 230.686C159.4 230.313 159.698 230.019 160.081 229.804C160.473 229.58 160.921 229.468 161.425 229.468C161.976 229.468 162.452 229.599 162.853 229.86C163.264 230.121 163.581 230.49 163.805 230.966C164.029 231.442 164.141 232.002 164.141 232.646V237H162.531V232.828C162.531 232.231 162.396 231.764 162.125 231.428C161.864 231.092 161.495 230.924 161.019 230.924C160.683 230.924 160.38 231.003 160.109 231.162C159.848 231.321 159.642 231.535 159.493 231.806C159.344 232.077 159.269 232.389 159.269 232.744V237H157.659Z" fill="#353D46"/>
<path d="M258.266 237L262.228 227.06H264.048L268.024 237H266.26L265.322 234.536H260.898L259.96 237H258.266ZM261.458 233.08H264.762L263.11 228.782L261.458 233.08ZM272.192 237.21C271.538 237.21 270.969 237.07 270.484 236.79C270.008 236.51 269.634 236.113 269.364 235.6C269.102 235.077 268.972 234.466 268.972 233.766V229.678H270.582V233.794C270.582 234.401 270.726 234.881 271.016 235.236C271.305 235.581 271.702 235.754 272.206 235.754C272.71 235.754 273.106 235.581 273.396 235.236C273.685 234.881 273.83 234.401 273.83 233.794V229.678H275.44V233.766C275.44 234.457 275.304 235.063 275.034 235.586C274.772 236.099 274.399 236.501 273.914 236.79C273.428 237.07 272.854 237.21 272.192 237.21ZM280.227 236.86C279.751 236.86 279.307 236.767 278.897 236.58C278.486 236.393 278.127 236.137 277.819 235.81C277.511 235.474 277.273 235.087 277.105 234.648C276.937 234.2 276.853 233.715 276.853 233.192C276.853 232.669 276.937 232.184 277.105 231.736C277.282 231.279 277.529 230.882 277.847 230.546C278.164 230.21 278.533 229.949 278.953 229.762C279.373 229.566 279.825 229.468 280.311 229.468C280.815 229.468 281.272 229.58 281.683 229.804C282.103 230.019 282.439 230.322 282.691 230.714L282.747 229.678H284.217V236.23C284.217 236.79 284.128 237.299 283.951 237.756C283.773 238.223 283.521 238.619 283.195 238.946C282.868 239.282 282.476 239.539 282.019 239.716C281.571 239.893 281.067 239.982 280.507 239.982C279.76 239.982 279.107 239.814 278.547 239.478C277.987 239.142 277.548 238.675 277.231 238.078L278.757 237.546C278.962 237.882 279.219 238.134 279.527 238.302C279.835 238.479 280.18 238.568 280.563 238.568C280.973 238.568 281.333 238.475 281.641 238.288C281.949 238.111 282.187 237.854 282.355 237.518C282.523 237.191 282.607 236.804 282.607 236.356V235.656C282.345 236.029 282.009 236.323 281.599 236.538C281.188 236.753 280.731 236.86 280.227 236.86ZM280.563 235.404C280.955 235.404 281.305 235.306 281.613 235.11C281.93 234.914 282.177 234.648 282.355 234.312C282.541 233.976 282.635 233.593 282.635 233.164C282.635 232.735 282.541 232.352 282.355 232.016C282.177 231.68 281.93 231.414 281.613 231.218C281.305 231.022 280.955 230.924 280.563 230.924C280.171 230.924 279.821 231.022 279.513 231.218C279.205 231.414 278.957 231.68 278.771 232.016C278.593 232.352 278.505 232.735 278.505 233.164C278.505 233.593 278.593 233.976 278.771 234.312C278.957 234.648 279.205 234.914 279.513 235.11C279.821 235.306 280.171 235.404 280.563 235.404Z" fill="#353D46"/>
<path d="M319.906 237.21C319.346 237.21 318.823 237.112 318.338 236.916C317.862 236.711 317.456 236.426 317.12 236.062C316.784 235.698 316.546 235.264 316.406 234.76L318.016 234.368C318.165 234.797 318.403 235.129 318.73 235.362C319.057 235.595 319.453 235.712 319.92 235.712C320.256 235.712 320.555 235.647 320.816 235.516C321.077 235.385 321.283 235.208 321.432 234.984C321.591 234.76 321.67 234.503 321.67 234.214C321.67 233.859 321.539 233.565 321.278 233.332C321.026 233.089 320.625 232.907 320.074 232.786L319.556 232.674C318.567 232.459 317.834 232.105 317.358 231.61C316.891 231.115 316.658 230.513 316.658 229.804C316.658 229.375 316.742 228.983 316.91 228.628C317.078 228.264 317.311 227.951 317.61 227.69C317.909 227.419 318.259 227.214 318.66 227.074C319.061 226.925 319.495 226.85 319.962 226.85C320.494 226.85 320.984 226.948 321.432 227.144C321.88 227.34 322.263 227.62 322.58 227.984C322.897 228.339 323.121 228.763 323.252 229.258L321.656 229.65C321.507 229.23 321.283 228.908 320.984 228.684C320.685 228.46 320.331 228.348 319.92 228.348C319.621 228.348 319.355 228.409 319.122 228.53C318.898 228.642 318.716 228.801 318.576 229.006C318.445 229.202 318.38 229.426 318.38 229.678C318.38 230.042 318.515 230.331 318.786 230.546C319.057 230.761 319.472 230.933 320.032 231.064L320.55 231.176C322.454 231.605 323.406 232.571 323.406 234.074C323.406 234.531 323.317 234.956 323.14 235.348C322.972 235.731 322.729 236.062 322.412 236.342C322.095 236.613 321.721 236.827 321.292 236.986C320.872 237.135 320.41 237.21 319.906 237.21ZM328.377 237.21C327.836 237.21 327.337 237.117 326.879 236.93C326.431 236.734 326.039 236.463 325.703 236.118C325.367 235.773 325.106 235.367 324.919 234.9C324.742 234.424 324.653 233.901 324.653 233.332C324.653 232.781 324.742 232.273 324.919 231.806C325.106 231.339 325.358 230.933 325.675 230.588C326.002 230.233 326.385 229.958 326.823 229.762C327.262 229.566 327.738 229.468 328.251 229.468C328.765 229.468 329.231 229.561 329.651 229.748C330.081 229.925 330.449 230.182 330.757 230.518C331.075 230.854 331.317 231.255 331.485 231.722C331.653 232.179 331.737 232.688 331.737 233.248V233.724H326.319C326.366 234.153 326.478 234.527 326.655 234.844C326.842 235.152 327.08 235.39 327.369 235.558C327.659 235.726 327.995 235.81 328.377 235.81C329.143 235.81 329.74 235.469 330.169 234.788L331.583 235.334C331.415 235.717 331.168 236.053 330.841 236.342C330.524 236.622 330.151 236.837 329.721 236.986C329.301 237.135 328.853 237.21 328.377 237.21ZM328.251 230.77C327.925 230.77 327.631 230.845 327.369 230.994C327.117 231.143 326.903 231.353 326.725 231.624C326.548 231.895 326.427 232.212 326.361 232.576H330.057C330.001 232.212 329.894 231.895 329.735 231.624C329.577 231.353 329.367 231.143 329.105 230.994C328.853 230.845 328.569 230.77 328.251 230.77ZM333.11 239.772V229.678H334.58L334.65 230.854C334.912 230.425 335.257 230.089 335.686 229.846C336.116 229.594 336.596 229.468 337.128 229.468C337.614 229.468 338.062 229.566 338.472 229.762C338.892 229.958 339.256 230.229 339.564 230.574C339.872 230.919 340.11 231.325 340.278 231.792C340.456 232.259 340.544 232.763 340.544 233.304C340.544 233.855 340.456 234.368 340.278 234.844C340.101 235.32 339.854 235.735 339.536 236.09C339.219 236.445 338.846 236.72 338.416 236.916C337.996 237.112 337.539 237.21 337.044 237.21C336.559 237.21 336.116 237.107 335.714 236.902C335.313 236.697 334.982 236.407 334.72 236.034V239.772H333.11ZM336.792 235.754C337.194 235.754 337.553 235.651 337.87 235.446C338.188 235.231 338.435 234.942 338.612 234.578C338.799 234.214 338.892 233.799 338.892 233.332C338.892 232.865 338.799 232.455 338.612 232.1C338.435 231.736 338.188 231.451 337.87 231.246C337.553 231.031 337.194 230.924 336.792 230.924C336.391 230.924 336.032 231.031 335.714 231.246C335.397 231.451 335.145 231.736 334.958 232.1C334.781 232.455 334.692 232.865 334.692 233.332C334.692 233.799 334.781 234.214 334.958 234.578C335.145 234.942 335.397 235.231 335.714 235.446C336.032 235.651 336.391 235.754 336.792 235.754Z" fill="#353D46"/>
<path d="M387.67 237.28C387.091 237.28 386.545 237.196 386.032 237.028C385.528 236.86 385.066 236.622 384.646 236.314C384.235 235.997 383.881 235.623 383.582 235.194C383.283 234.765 383.05 234.284 382.882 233.752C382.723 233.22 382.644 232.651 382.644 232.044C382.644 231.437 382.723 230.868 382.882 230.336C383.05 229.804 383.283 229.323 383.582 228.894C383.881 228.455 384.24 228.077 384.66 227.76C385.08 227.443 385.542 227.2 386.046 227.032C386.559 226.864 387.105 226.78 387.684 226.78C388.263 226.78 388.804 226.864 389.308 227.032C389.821 227.2 390.283 227.443 390.694 227.76C391.114 228.068 391.473 228.437 391.772 228.866C392.071 229.295 392.299 229.776 392.458 230.308C392.617 230.84 392.696 231.409 392.696 232.016C392.696 232.623 392.612 233.192 392.444 233.724C392.285 234.256 392.057 234.741 391.758 235.18C391.459 235.609 391.1 235.983 390.68 236.3C390.269 236.617 389.807 236.86 389.294 237.028C388.79 237.196 388.249 237.28 387.67 237.28ZM387.67 235.712C388.146 235.712 388.58 235.623 388.972 235.446C389.373 235.259 389.719 235.003 390.008 234.676C390.297 234.349 390.521 233.962 390.68 233.514C390.848 233.057 390.932 232.562 390.932 232.03C390.932 231.498 390.848 231.008 390.68 230.56C390.521 230.103 390.297 229.711 390.008 229.384C389.719 229.057 389.373 228.805 388.972 228.628C388.58 228.441 388.146 228.348 387.67 228.348C387.194 228.348 386.755 228.441 386.354 228.628C385.962 228.805 385.621 229.057 385.332 229.384C385.043 229.711 384.814 230.103 384.646 230.56C384.487 231.008 384.408 231.498 384.408 232.03C384.408 232.562 384.487 233.057 384.646 233.514C384.814 233.962 385.043 234.349 385.332 234.676C385.621 235.003 385.962 235.259 386.354 235.446C386.755 235.623 387.194 235.712 387.67 235.712ZM397.506 237.21C396.983 237.21 396.503 237.117 396.064 236.93C395.625 236.734 395.243 236.468 394.916 236.132C394.589 235.787 394.333 235.381 394.146 234.914C393.969 234.447 393.88 233.939 393.88 233.388C393.88 232.837 393.973 232.324 394.16 231.848C394.347 231.372 394.603 230.957 394.93 230.602C395.257 230.247 395.639 229.972 396.078 229.776C396.526 229.571 397.011 229.468 397.534 229.468C398.038 229.468 398.5 229.561 398.92 229.748C399.34 229.925 399.699 230.182 399.998 230.518C400.306 230.845 400.525 231.232 400.656 231.68L399.13 232.044C398.971 231.689 398.747 231.414 398.458 231.218C398.178 231.022 397.861 230.924 397.506 230.924C397.133 230.924 396.797 231.031 396.498 231.246C396.199 231.461 395.961 231.755 395.784 232.128C395.616 232.492 395.532 232.907 395.532 233.374C395.532 233.831 395.616 234.242 395.784 234.606C395.952 234.961 396.181 235.241 396.47 235.446C396.769 235.651 397.114 235.754 397.506 235.754C397.879 235.754 398.22 235.661 398.528 235.474C398.836 235.278 399.065 235.003 399.214 234.648L400.726 234.998C400.595 235.446 400.371 235.838 400.054 236.174C399.737 236.501 399.359 236.757 398.92 236.944C398.481 237.121 398.01 237.21 397.506 237.21ZM405.019 237.21C404.282 237.21 403.703 237 403.283 236.58C402.863 236.151 402.653 235.539 402.653 234.746V230.98H401.365V229.678H402.653V227.2H404.263V229.678H406.391V230.98H404.263V234.578C404.263 234.97 404.342 235.273 404.501 235.488C404.669 235.693 404.912 235.796 405.229 235.796C405.397 235.796 405.579 235.773 405.775 235.726C405.971 235.67 406.153 235.595 406.321 235.502L406.685 236.72C406.47 236.869 406.218 236.986 405.929 237.07C405.649 237.163 405.346 237.21 405.019 237.21Z" fill="#353D46"/>
<path d="M444.98 237V227.06H446.492L451.448 234.172V227.06H453.114V237H451.602L446.646 229.86V237H444.98ZM458.36 237.21C457.828 237.21 457.333 237.117 456.876 236.93C456.428 236.734 456.036 236.463 455.7 236.118C455.364 235.763 455.103 235.353 454.916 234.886C454.729 234.41 454.636 233.892 454.636 233.332C454.636 232.781 454.729 232.273 454.916 231.806C455.103 231.33 455.364 230.919 455.7 230.574C456.045 230.219 456.447 229.949 456.904 229.762C457.371 229.566 457.875 229.468 458.416 229.468C458.948 229.468 459.438 229.566 459.886 229.762C460.343 229.949 460.74 230.219 461.076 230.574C461.412 230.919 461.673 231.325 461.86 231.792C462.047 232.259 462.14 232.772 462.14 233.332C462.14 233.892 462.047 234.41 461.86 234.886C461.673 235.353 461.407 235.763 461.062 236.118C460.726 236.463 460.325 236.734 459.858 236.93C459.401 237.117 458.901 237.21 458.36 237.21ZM458.388 235.754C458.789 235.754 459.149 235.651 459.466 235.446C459.783 235.231 460.031 234.942 460.208 234.578C460.395 234.214 460.488 233.799 460.488 233.332C460.488 232.865 460.395 232.455 460.208 232.1C460.031 231.736 459.783 231.451 459.466 231.246C459.149 231.031 458.789 230.924 458.388 230.924C457.987 230.924 457.627 231.031 457.31 231.246C456.993 231.451 456.741 231.736 456.554 232.1C456.377 232.455 456.288 232.865 456.288 233.332C456.288 233.799 456.377 234.214 456.554 234.578C456.741 234.942 456.993 235.231 457.31 235.446C457.627 235.651 457.987 235.754 458.388 235.754ZM465.467 237L462.667 229.678H464.431L466.307 235.32L468.197 229.678H469.905L467.105 237H465.467Z" fill="#353D46"/>
<path d="M205.486 237.21C204.954 237.21 204.469 237.112 204.03 236.916C203.601 236.711 203.232 236.421 202.924 236.048C202.616 235.675 202.383 235.217 202.224 234.676L203.876 234.326C204.203 235.222 204.744 235.67 205.5 235.67C205.808 235.67 206.074 235.595 206.298 235.446C206.531 235.287 206.709 235.068 206.83 234.788C206.951 234.508 207.012 234.181 207.012 233.808V227.06H208.72V233.766C208.72 234.279 208.641 234.751 208.482 235.18C208.333 235.6 208.113 235.964 207.824 236.272C207.544 236.571 207.203 236.804 206.802 236.972C206.41 237.131 205.971 237.21 205.486 237.21ZM213.676 237.21C213.023 237.21 212.453 237.07 211.968 236.79C211.492 236.51 211.119 236.113 210.848 235.6C210.587 235.077 210.456 234.466 210.456 233.766V229.678H212.066V233.794C212.066 234.401 212.211 234.881 212.5 235.236C212.789 235.581 213.186 235.754 213.69 235.754C214.194 235.754 214.591 235.581 214.88 235.236C215.169 234.881 215.314 234.401 215.314 233.794V229.678H216.924V233.766C216.924 234.457 216.789 235.063 216.518 235.586C216.257 236.099 215.883 236.501 215.398 236.79C214.913 237.07 214.339 237.21 213.676 237.21ZM218.659 237V226.584H220.269V237H218.659Z" fill="#353D46"/>
<defs>
<filter id="filter0_d_3200_15542" x="141" y="0" width="171" height="99" filterUnits="userSpaceOnUse" color-interpolation-filters="sRGB">
<feFlood flood-opacity="0" result="BackgroundImageFix"/>
<feColorMatrix in="SourceAlpha" type="matrix" values="0 0 0 0 0 0 0 0 0 0 0 0 0 0 0 0 0 0 127 0" result="hardAlpha"/>
<feOffset dy="-8"/>
<feGaussianBlur stdDeviation="20"/>
<feColorMatrix type="matrix" values="0 0 0 0 0.0680272 0 0 0 0 0.031746 0 0 0 0 0.44898 0 0 0 0.0869565 0"/>
<feBlend mode="normal" in2="BackgroundImageFix" result="effect1_dropShadow_3200_15542"/>
<feBlend mode="normal" in="SourceGraphic" in2="effect1_dropShadow_3200_15542" result="shape"/>
</filter>
<linearGradient id="paint0_linear_3200_15542" x1="445.5" y1="184" x2="445.761" y2="40.7271" gradientUnits="userSpaceOnUse">
<stop stop-color="#F9F9F9"/>
<stop offset="1" stop-color="#FFE1EB"/>
</linearGradient>
</defs>
</svg>
