<svg width="22" height="22" viewBox="0 0 22 22" fill="none" xmlns="http://www.w3.org/2000/svg">
<path fill-rule="evenodd" clip-rule="evenodd" d="M15.9779 12.79C16.6526 12.79 17.2189 13.3469 17.1158 14.0132C16.5105 17.9332 13.1547 20.8437 9.10737 20.8437C4.62947 20.8437 1 17.2142 1 12.7374C1 9.04897 3.80211 5.61318 6.95684 4.83634C7.63474 4.66897 8.32947 5.14581 8.32947 5.84371C8.32947 10.5721 8.48842 11.7953 9.38632 12.4605C10.2842 13.1258 11.34 12.79 15.9779 12.79Z" stroke="#89163B" stroke-width="1.5" stroke-linecap="round" stroke-linejoin="round"/>
<path fill-rule="evenodd" clip-rule="evenodd" d="M20.3923 8.8516C20.446 5.8137 16.7144 0.916861 12.1671 1.00107C11.8134 1.00739 11.5302 1.30212 11.5144 1.65476C11.3997 4.15265 11.5544 7.38949 11.6408 8.85686C11.6671 9.3137 12.026 9.67265 12.4818 9.69897C13.9902 9.78528 17.345 9.90318 19.8071 9.53055C20.1418 9.48002 20.3871 9.18949 20.3923 8.8516Z" stroke="#89163B" stroke-width="1.5" stroke-linecap="round" stroke-linejoin="round"/>
</svg>
