<svg width="6" height="10" viewBox="0 0 6 10" fill="none" xmlns="http://www.w3.org/2000/svg">
<path d="M0.670123 0C0.292212 0 -0.001091 0.293122 -0.001091 0.665163C-0.001091 0.851183 0.0722351 1.02029 0.201965 1.14994L4.15028 5.00564L0.201965 8.85006C0.0722351 8.97971 -0.001091 9.15445 -0.001091 9.33484C-0.001091 9.70688 0.292212 10 0.670123 10C0.850617 10 1.00855 9.93236 1.13264 9.80834L5.52091 5.52424C5.67885 5.37768 5.75781 5.19729 5.75781 5C5.75781 4.80271 5.67885 4.6336 5.52655 4.4814L1.13828 0.191657C1.00855 0.0676432 0.850617 0 0.670123 0Z" fill="#353D46"/>
</svg>
