<svg width="52" height="51" viewBox="0 0 52 51" fill="none" xmlns="http://www.w3.org/2000/svg">
<circle cx="26" cy="25" r="25" fill="#FCF9FA" stroke="#89163B" stroke-opacity="0.1"/>
<path fill-rule="evenodd" clip-rule="evenodd" d="M25.9226 34.8058C22.1086 34.8058 18.8506 34.2288 18.8506 31.9188C18.8506 29.6088 22.0876 27.5078 25.9226 27.5078C29.7366 27.5078 32.9946 29.5888 32.9946 31.8978C32.9946 34.2068 29.7576 34.8058 25.9226 34.8058Z" stroke="#89163B" stroke-width="1.5" stroke-linecap="round" stroke-linejoin="round"/>
<path fill-rule="evenodd" clip-rule="evenodd" d="M25.9227 24.2144C28.4257 24.2144 30.4557 22.1844 30.4557 19.6814C30.4557 17.1774 28.4257 15.1484 25.9227 15.1484C23.4197 15.1484 21.3897 17.1774 21.3897 19.6814C21.3807 22.1754 23.3967 24.2054 25.8907 24.2144H25.9227Z" stroke="#89163B" stroke-width="1.5" stroke-linecap="round" stroke-linejoin="round"/>
<path d="M35.1318 21.1289V25.1389" stroke="#89163B" stroke-width="1.5" stroke-linecap="round" stroke-linejoin="round"/>
<path d="M37.1779 23.1328H33.0879" stroke="#89163B" stroke-width="1.5" stroke-linecap="round" stroke-linejoin="round"/>
</svg>
