<svg width="11" height="12" viewBox="0 0 11 12" fill="none" xmlns="http://www.w3.org/2000/svg">
<path fill-rule="evenodd" clip-rule="evenodd" d="M1.0439 5.69942C1.0439 3.50703 2.83044 1.72388 5.0264 1.72388C7.22187 1.72388 9.00842 3.50703 9.00842 5.69942C9.00842 7.89181 7.22187 9.67545 5.0264 9.67545C2.83044 9.67545 1.0439 7.89181 1.0439 5.69942ZM0.318848 5.69942C0.318848 8.29091 2.4307 10.3993 5.0264 10.3993C6.13653 10.3993 7.15808 10.0137 7.96375 9.36952L9.49536 10.8943C9.56642 10.9648 9.65923 11 9.75155 11C9.84436 11 9.93765 10.9648 10.0082 10.8933C10.1498 10.752 10.1494 10.5232 10.0077 10.3818L8.49409 8.87447C9.26337 8.03752 9.73347 6.92225 9.73347 5.69942C9.73347 3.10794 7.62211 1 5.0264 1C2.4307 1 0.318848 3.10794 0.318848 5.69942Z" fill="#89163B"/>
<path d="M7.96375 9.36952L8.14013 9.19235L7.98196 9.03488L7.80763 9.17426L7.96375 9.36952ZM9.49536 10.8943L9.31898 11.0715L9.31933 11.0718L9.49536 10.8943ZM10.0082 10.8933L9.83158 10.7164L9.83039 10.7176L10.0082 10.8933ZM10.0077 10.3818L10.1844 10.2049L10.1841 10.2047L10.0077 10.3818ZM8.49409 8.87447L8.31003 8.7053L8.14749 8.88213L8.31768 9.05162L8.49409 8.87447ZM5.0264 1.47388C2.69279 1.47388 0.7939 3.36854 0.7939 5.69942H1.2939C1.2939 3.64553 2.96809 1.97388 5.0264 1.97388V1.47388ZM9.25842 5.69942C9.25842 3.36856 7.35954 1.47388 5.0264 1.47388V1.97388C7.08421 1.97388 8.75842 3.64551 8.75842 5.69942H9.25842ZM5.0264 9.92545C7.35958 9.92545 9.25842 8.03024 9.25842 5.69942H8.75842C8.75842 7.75337 7.08417 9.42545 5.0264 9.42545V9.92545ZM0.7939 5.69942C0.7939 8.03026 2.69275 9.92545 5.0264 9.92545V9.42545C2.96813 9.42545 1.2939 7.75335 1.2939 5.69942H0.7939ZM5.0264 10.1493C2.56839 10.1493 0.568848 8.15245 0.568848 5.69942H0.0688477C0.0688477 8.42936 2.29301 10.6493 5.0264 10.6493V10.1493ZM7.80763 9.17426C7.04457 9.78435 6.07764 10.1493 5.0264 10.1493V10.6493C6.19543 10.6493 7.27159 10.243 8.11987 9.56478L7.80763 9.17426ZM9.67175 10.7171L8.14013 9.19235L7.78737 9.54669L9.31898 11.0715L9.67175 10.7171ZM9.75155 10.75C9.72268 10.75 9.69389 10.7391 9.67139 10.7168L9.31933 11.0718C9.43895 11.1904 9.59577 11.25 9.75155 11.25V10.75ZM9.83039 10.7176C9.80942 10.7389 9.78138 10.75 9.75155 10.75V11.25C9.90733 11.25 10.0659 11.1907 10.1861 11.0691L9.83039 10.7176ZM9.8311 10.5587C9.87534 10.6029 9.87495 10.6731 9.83158 10.7164L10.1849 11.0703C10.4247 10.8308 10.4234 10.4435 10.1844 10.2049L9.8311 10.5587ZM8.31768 9.05162L9.83133 10.559L10.1841 10.2047L8.6705 8.69733L8.31768 9.05162ZM9.48347 5.69942C9.48347 6.85692 9.03874 7.91248 8.31003 8.7053L8.67815 9.04365C9.48799 8.16257 9.98347 6.98758 9.98347 5.69942H9.48347ZM5.0264 1.25C7.48442 1.25 9.48347 3.24639 9.48347 5.69942H9.98347C9.98347 2.96948 7.7598 0.75 5.0264 0.75V1.25ZM0.568848 5.69942C0.568848 3.24642 2.56835 1.25 5.0264 1.25V0.75C2.29304 0.75 0.0688477 2.96945 0.0688477 5.69942H0.568848Z" fill="#89163B"/>
</svg>
