<svg width="20" height="20" viewBox="0 0 20 20" fill="none" xmlns="http://www.w3.org/2000/svg">
<path fill-rule="evenodd" clip-rule="evenodd" d="M2.22016 8.74747C2.22016 5.13366 5.22652 2.19441 8.92184 2.19441C12.6163 2.19441 15.6227 5.13366 15.6227 8.74747C15.6227 12.3613 12.6163 15.3013 8.92184 15.3013C5.22652 15.3013 2.22016 12.3613 2.22016 8.74747ZM1 8.74626C1 13.0179 4.55378 16.4933 8.92179 16.4933C13.2898 16.4933 16.8428 13.0179 16.8428 8.74626C16.8428 4.4746 13.2898 1 8.92179 1C4.55378 1 1 4.4746 1 8.74626ZM18.0565 18.8258C18.1761 18.9419 18.3323 19 18.4876 19C18.6438 19 18.8008 18.9419 18.9196 18.8242C19.1579 18.5911 19.1571 18.2141 18.9187 17.981L16.0523 15.1849C15.8132 14.9535 15.4268 14.9519 15.1893 15.1865C14.9509 15.4196 14.9518 15.7974 15.1901 16.0305L18.0565 18.8258Z" fill="#353D46"/>
<path d="M18.0565 18.8258L17.882 19.0048L17.8824 19.0051L18.0565 18.8258ZM18.9196 18.8242L18.7448 18.6455L18.7436 18.6467L18.9196 18.8242ZM18.9187 17.981L19.0935 17.8023L19.0933 17.802L18.9187 17.981ZM16.0523 15.1849L16.2269 15.006L16.2262 15.0053L16.0523 15.1849ZM15.1893 15.1865L15.3641 15.3653L15.365 15.3644L15.1893 15.1865ZM15.1901 16.0305L15.0153 16.2093L15.0155 16.2095L15.1901 16.0305ZM8.92184 1.94441C5.09377 1.94441 1.97016 4.99032 1.97016 8.74747H2.47016C2.47016 5.277 5.35927 2.44441 8.92184 2.44441V1.94441ZM15.8727 8.74747C15.8727 4.99034 12.7491 1.94441 8.92184 1.94441V2.44441C12.4836 2.44441 15.3727 5.27698 15.3727 8.74747H15.8727ZM8.92184 15.5513C12.7491 15.5513 15.8727 12.5046 15.8727 8.74747H15.3727C15.3727 12.218 12.4835 15.0513 8.92184 15.0513V15.5513ZM1.97016 8.74747C1.97016 12.5046 5.09373 15.5513 8.92184 15.5513V15.0513C5.35931 15.0513 2.47016 12.218 2.47016 8.74747H1.97016ZM8.92179 16.2433C4.68657 16.2433 1.25 12.8746 1.25 8.74626H0.75C0.75 13.1612 4.421 16.7433 8.92179 16.7433V16.2433ZM16.5928 8.74626C16.5928 12.8747 13.157 16.2433 8.92179 16.2433V16.7433C13.4226 16.7433 17.0928 13.1612 17.0928 8.74626H16.5928ZM8.92179 1.25C13.157 1.25 16.5928 4.6179 16.5928 8.74626H17.0928C17.0928 4.3313 13.4226 0.75 8.92179 0.75V1.25ZM1.25 8.74626C1.25 4.61793 4.68653 1.25 8.92179 1.25V0.75C4.42103 0.75 0.75 4.33127 0.75 8.74626H1.25ZM18.4876 18.75C18.3941 18.75 18.3014 18.7151 18.2307 18.6465L17.8824 19.0051C18.0508 19.1688 18.2704 19.25 18.4876 19.25V18.75ZM18.7436 18.6467C18.6748 18.7148 18.5825 18.75 18.4876 18.75V19.25C18.7052 19.25 18.9268 19.169 19.0956 19.0017L18.7436 18.6467ZM18.744 18.1597C18.8825 18.2952 18.8824 18.5109 18.7448 18.6455L19.0944 19.0029C19.4334 18.6714 19.4317 18.133 19.0935 17.8023L18.744 18.1597ZM15.8777 15.3639L18.7442 18.16L19.0933 17.802L16.2269 15.006L15.8777 15.3639ZM15.365 15.3644C15.5041 15.2269 15.7352 15.2259 15.8784 15.3646L16.2262 15.0053C15.8911 14.681 15.3494 14.6768 15.0136 15.0087L15.365 15.3644ZM15.3649 15.8518C15.2264 15.7163 15.2265 15.4998 15.3641 15.3653L15.0145 15.0078C14.6754 15.3394 14.6771 15.8786 15.0153 16.2093L15.3649 15.8518ZM18.2311 18.6468L15.3646 15.8515L15.0155 16.2095L17.882 19.0048L18.2311 18.6468Z" fill="#353D46"/>
</svg>
