<svg width="46" height="46" viewBox="0 0 46 46" fill="none" xmlns="http://www.w3.org/2000/svg">
<rect x="1" y="1" width="44.4444" height="44.4444" rx="19.5" fill="#FCF9FA" stroke="#89163B" stroke-opacity="0.1"/>
<path fill-rule="evenodd" clip-rule="evenodd" d="M19.8843 28.529C19.6603 28.469 19.4313 28.44 19.2023 28.44C18.7383 28.44 18.2763 28.561 17.8793 28.794C17.6093 28.944 17.2853 28.979 16.9913 28.897C16.6963 28.814 16.4413 28.611 16.2853 28.33L15.6543 27.242C15.3363 26.692 15.5263 25.985 16.0753 25.667C16.8963 25.192 17.4073 24.309 17.4073 23.361C17.4073 22.413 16.8963 21.529 16.0773 21.055C15.5253 20.734 15.3353 20.023 15.6453 19.485L16.3223 18.372C16.6413 17.817 17.3533 17.626 17.8983 17.936C18.2863 18.168 18.7333 18.293 19.1973 18.298C20.6443 18.298 21.8393 17.121 21.8603 15.659C21.8583 15.349 21.9773 15.058 22.1953 14.839C22.4143 14.621 22.7043 14.5 23.0143 14.5H24.2673C24.5803 14.5 24.8853 14.627 25.1023 14.851C25.3203 15.076 25.4403 15.383 25.4313 15.725C25.4353 16.18 25.5603 16.627 25.7903 17.011C26.1493 17.625 26.7253 18.06 27.4123 18.238C28.1003 18.419 28.8163 18.317 29.4183 17.961C29.9753 17.644 30.6853 17.835 31.0043 18.39L31.5903 19.406C31.6003 19.43 31.6123 19.453 31.6253 19.475C31.9403 20.027 31.7503 20.736 31.2083 21.053C30.8043 21.285 30.4673 21.622 30.2373 22.022C29.8843 22.629 29.7853 23.366 29.9663 24.041C30.1493 24.729 30.5903 25.303 31.2083 25.659C31.4723 25.81 31.6683 26.066 31.7463 26.361C31.8253 26.656 31.7823 26.976 31.6343 27.231L30.9703 28.338C30.6483 28.888 29.9373 29.078 29.3803 28.759C28.9933 28.539 28.5543 28.416 28.0983 28.405C27.4023 28.385 26.7063 28.684 26.2083 29.182C25.7033 29.687 25.4273 30.358 25.4313 31.064C25.4283 31.703 24.9063 32.221 24.2673 32.221H23.0143C22.3723 32.221 21.8503 31.7 21.8503 31.05C21.8463 30.596 21.7213 30.151 21.4953 29.77C21.1473 29.163 20.5603 28.711 19.8843 28.529ZM23.0143 33.721H24.2673C25.7293 33.721 26.9243 32.533 26.9313 31.064C26.9293 30.754 27.0493 30.462 27.2683 30.243C27.4843 30.028 27.7813 29.905 28.0703 29.905H28.0763C28.2703 29.91 28.4653 29.963 28.6343 30.06C29.9013 30.792 31.5303 30.357 32.2613 29.101L32.9253 27.995C33.2783 27.388 33.3773 26.652 33.1963 25.974C33.0153 25.295 32.5623 24.707 31.9553 24.358C31.6863 24.204 31.4953 23.955 31.4153 23.655C31.3373 23.361 31.3803 23.041 31.5353 22.772C31.6353 22.598 31.7803 22.454 31.9593 22.351C33.1893 21.632 33.6313 20.057 32.9693 18.806C32.9573 18.777 32.9433 18.749 32.9273 18.72L32.3043 17.641C31.5733 16.371 29.9443 15.933 28.6643 16.664C28.3993 16.821 28.0873 16.861 27.7893 16.787C27.4913 16.709 27.2403 16.519 27.0813 16.249C26.9853 16.086 26.9323 15.9 26.9303 15.739C26.9513 15.024 26.6763 14.319 26.1783 13.805C25.6793 13.294 24.9833 13 24.2673 13H23.0143C22.3033 13 21.6353 13.277 21.1323 13.781C20.6313 14.286 20.3563 14.955 20.3603 15.652C20.3503 16.284 19.8293 16.798 19.2063 16.798C19.0153 16.796 18.8273 16.744 18.6543 16.641C17.3833 15.911 15.7533 16.353 15.0323 17.607L14.3543 18.72C13.6243 19.988 14.0583 21.617 15.3253 22.353C15.6843 22.56 15.9073 22.947 15.9073 23.361C15.9073 23.775 15.6843 24.161 15.3253 24.368C14.0593 25.1 13.6243 26.725 14.3553 27.993L14.9803 29.07C15.3223 29.685 15.9053 30.149 16.5803 30.34C17.2563 30.53 17.9953 30.445 18.6233 30.095C18.8853 29.943 19.2043 29.9 19.4953 29.978C19.7883 30.056 20.0423 30.252 20.1993 30.526C20.2963 30.689 20.3483 30.877 20.3503 31.058C20.3503 32.527 21.5453 33.721 23.0143 33.721ZM21.7592 23.3611C21.7592 22.3211 22.6052 21.4741 23.6452 21.4741C24.6852 21.4741 25.5312 22.3211 25.5312 23.3611C25.5312 24.4011 24.6852 25.2461 23.6452 25.2461C22.6052 25.2461 21.7592 24.4011 21.7592 23.3611ZM20.2592 23.3611C20.2592 25.2281 21.7782 26.7461 23.6452 26.7461C25.5122 26.7461 27.0312 25.2281 27.0312 23.3611C27.0312 21.4941 25.5122 19.9741 23.6452 19.9741C21.7782 19.9741 20.2592 21.4941 20.2592 23.3611Z" fill="#89163B"/>
</svg>
