<svg width="21" height="21" viewBox="0 0 21 21" fill="none" xmlns="http://www.w3.org/2000/svg">
<path d="M5.46777 13.5046L8.46077 9.61563L11.8748 12.2956L14.8038 8.51562" stroke="#89163B" stroke-width="1.5" stroke-linecap="round" stroke-linejoin="round"/>
<path fill-rule="evenodd" clip-rule="evenodd" d="M18.2174 1C19.2794 1 20.1394 1.86 20.1394 2.922C20.1394 3.983 19.2794 4.844 18.2174 4.844C17.1554 4.844 16.2954 3.983 16.2954 2.922C16.2954 1.86 17.1554 1 18.2174 1Z" stroke="#89163B" stroke-width="1.5" stroke-linecap="round" stroke-linejoin="round"/>
<path d="M19.306 7.91913C19.439 8.81413 19.5 9.82212 19.5 10.9531C19.5 17.8911 17.188 20.2031 10.25 20.2031C3.313 20.2031 1 17.8911 1 10.9531C1 4.01613 3.313 1.70312 10.25 1.70312C11.36 1.70312 12.351 1.76213 13.233 1.89013" stroke="#89163B" stroke-width="1.5" stroke-linecap="round" stroke-linejoin="round"/>
</svg>
