<svg width="21" height="22" viewBox="0 0 21 22" fill="none" xmlns="http://www.w3.org/2000/svg">
<path fill-rule="evenodd" clip-rule="evenodd" d="M17.9674 2.25C17.3214 2.25 16.7954 2.775 16.7954 3.422C16.7954 4.068 17.3214 4.595 17.9674 4.595C18.6134 4.595 19.1394 4.068 19.1394 3.422C19.1394 2.775 18.6134 2.25 17.9674 2.25ZM17.9674 6.095C16.4944 6.095 15.2954 4.896 15.2954 3.422C15.2954 1.948 16.4944 0.75 17.9674 0.75C19.4414 0.75 20.6394 1.948 20.6394 3.422C20.6394 4.896 19.4414 6.095 17.9674 6.095ZM5.2164 14.7529C5.0564 14.7529 4.8954 14.7019 4.7594 14.5979C4.4314 14.3449 4.3694 13.8739 4.6224 13.5459L7.6154 9.6559C7.7374 9.4969 7.9184 9.3939 8.1164 9.3689C8.3184 9.3429 8.5164 9.3989 8.6734 9.5239L11.4934 11.7389L13.9604 8.5559C14.2144 8.2269 14.6844 8.1659 15.0124 8.4219C15.3404 8.6759 15.4004 9.1469 15.1464 9.4739L12.2164 13.2539C12.0944 13.4119 11.9144 13.5149 11.7164 13.5389C11.5164 13.5659 11.3184 13.5079 11.1604 13.3849L8.3424 11.1709L5.8114 14.4599C5.6634 14.6519 5.4414 14.7529 5.2164 14.7529ZM5.629 21.4531H14.233C17.6 21.4531 19.862 19.0881 19.862 15.5681V8.5291C19.862 8.1151 19.526 7.7791 19.112 7.7791C18.698 7.7791 18.362 8.1151 18.362 8.5291V15.5681C18.362 18.2321 16.741 19.9531 14.233 19.9531H5.629C3.082 19.9531 1.5 18.2731 1.5 15.5681V7.4861C1.5 4.8161 3.121 3.0921 5.629 3.0921H12.897C13.311 3.0921 13.647 2.7561 13.647 2.3421C13.647 1.9281 13.311 1.5921 12.897 1.5921H5.629C2.262 1.5921 0 3.9611 0 7.4861V15.5681C0 19.0881 2.262 21.4531 5.629 21.4531Z" fill="#353D46"/>
</svg>
