<svg width="20" height="20" viewBox="0 0 20 20" fill="none" xmlns="http://www.w3.org/2000/svg">
<g clip-path="url(#clip0_1562_23274)">
<path d="M17.0707 2.92929C15.181 1.03956 12.6726 0 10 0C7.32744 0 4.81902 1.03956 2.92929 2.92929C1.03956 4.81902 0 7.32744 0 10C0 12.6726 1.03956 15.181 2.92929 17.0707C4.81902 18.9604 7.32744 20 10 20C12.6726 20 15.181 18.9604 17.0707 17.0707C18.9604 15.181 20 12.6726 20 10C20 7.32744 18.9604 4.81902 17.0707 2.92929ZM16.2668 16.2668C14.5918 17.9419 12.3653 18.8636 10 18.8636C7.63468 18.8636 5.40825 17.9419 3.73316 16.2668C0.277778 12.8114 0.277778 7.18855 3.73316 3.73316C5.40825 2.05808 7.63468 1.13636 10 1.13636C12.3653 1.13636 14.5918 2.05808 16.2668 3.73316C19.7222 7.18855 19.7222 12.8114 16.2668 16.2668Z" fill="white"/>
<path d="M14.4062 5.59308C14.1831 5.37002 13.8254 5.37002 13.6023 5.59308L9.99964 9.19577L6.39695 5.59308C6.17389 5.37002 5.81614 5.37002 5.59308 5.59308C5.37002 5.81614 5.37002 6.17389 5.59308 6.39695L9.19577 9.99965L5.59308 13.6023C5.37002 13.8254 5.37002 14.1831 5.59308 14.4062C5.70251 14.5156 5.84981 14.5746 5.99291 14.5746C6.13601 14.5746 6.28331 14.5198 6.39274 14.4062L9.99543 10.8035L13.5981 14.4062C13.7075 14.5156 13.8548 14.5746 13.9979 14.5746C14.1453 14.5746 14.2884 14.5198 14.3978 14.4062C14.6208 14.1831 14.6208 13.8254 14.3978 13.6023L10.8035 9.99965L14.4062 6.39695C14.6293 6.17389 14.6293 5.81614 14.4062 5.59308Z" fill="white"/>
</g>
<defs>
<clipPath id="clip0_1562_23274">
<rect width="20" height="20" fill="white"/>
</clipPath>
</defs>
</svg>
